<?xml version="1.0" encoding="UTF-8" standalone="no"?>
<!-- Created with Inkscape (http://www.inkscape.org/) -->

<svg
   xmlns:dc="http://purl.org/dc/elements/1.1/"
   xmlns:cc="http://creativecommons.org/ns#"
   xmlns:rdf="http://www.w3.org/1999/02/22-rdf-syntax-ns#"
   xmlns:svg="http://www.w3.org/2000/svg"
   xmlns="http://www.w3.org/2000/svg"
   xmlns:sodipodi="http://sodipodi.sourceforge.net/DTD/sodipodi-0.dtd"
   xmlns:inkscape="http://www.inkscape.org/namespaces/inkscape"
   width="300"
   height="150"
   viewBox="0 0 300 150"
   id="svg2"
   version="1.1"
   inkscape:version="0.91 r13725"
   sodipodi:docname="rapid-prototyping.svg">
  <defs
     id="defs4" />
  <sodipodi:namedview
     id="base"
     pagecolor="#ffffff"
     bordercolor="#666666"
     borderopacity="1.0"
     inkscape:pageopacity="0.0"
     inkscape:pageshadow="2"
     inkscape:zoom="2"
     inkscape:cx="100.65492"
     inkscape:cy="49.498702"
     inkscape:document-units="px"
     inkscape:current-layer="g4352"
     showgrid="false"
     units="px"
     inkscape:window-width="1366"
     inkscape:window-height="704"
     inkscape:window-x="0"
     inkscape:window-y="27"
     inkscape:window-maximized="1" />
  <metadata
     id="metadata7">
    <rdf:RDF>
      <cc:Work
         rdf:about="">
        <dc:format>image/svg+xml</dc:format>
        <dc:type
           rdf:resource="http://purl.org/dc/dcmitype/StillImage" />
        <dc:title />
      </cc:Work>
    </rdf:RDF>
  </metadata>
  <g
     inkscape:label="Layer 1"
     inkscape:groupmode="layer"
     id="layer1"
     transform="translate(0,-902.36216)">
    <flowRoot
       xml:space="preserve"
       id="flowRoot4387"
       style="font-style:normal;font-weight:normal;font-size:40px;line-height:125%;font-family:sans-serif;letter-spacing:0px;word-spacing:0px;fill:#000000;fill-opacity:1;stroke:none;stroke-width:1px;stroke-linecap:butt;stroke-linejoin:miter;stroke-opacity:1"
       transform="translate(0,-4)"><flowRegion
         id="flowRegion4389"><rect
           id="rect4391"
           width="134.44333"
           height="188.40674"
           x="250.27858"
           y="-19.333466" /></flowRegion><flowPara
         id="flowPara4393" /></flowRoot>    <g
       id="g4655"
       transform="translate(-6.1713863,-4)">
      <rect
         transform="matrix(0.94609832,0.32387955,0,1,0,0)"
         y="978.00208"
         x="48.918457"
         height="6.5754666"
         width="164.87782"
         id="rect4623"
         style="fill:#4a4a4a;fill-opacity:1;stroke:#000000;stroke-width:1.02809173;stroke-linecap:round;stroke-linejoin:round;stroke-miterlimit:4;stroke-dasharray:none;stroke-opacity:1" />
      <g
         transform="matrix(0.42193901,-0.38822236,0.69146147,0.23689846,-721.74369,944.9978)"
         id="g4498"
         style="stroke-width:1.64756159;stroke-miterlimit:4;stroke-dasharray:none">
        <g
           id="g4539"
           style="stroke-width:1.64756159;stroke-miterlimit:4;stroke-dasharray:none">
          <rect
             y="865.28088"
             x="402.43921"
             height="225.7392"
             width="150.52841"
             id="rect4136-1-5-5"
             style="fill:#000000;fill-opacity:1;stroke:#000000;stroke-width:1.64756159;stroke-opacity:1;stroke-miterlimit:4;stroke-dasharray:none" />
          <rect
             y="881.16785"
             x="409.31876"
             height="192.12836"
             width="136.76933"
             id="rect4136-1-5"
             style="fill:#71b7df;fill-opacity:1;stroke:#000000;stroke-opacity:1;stroke-width:1.64756159;stroke-miterlimit:4;stroke-dasharray:none" />
          <rect
             y="871.57654"
             x="441.33191"
             height="3.0406284"
             width="72.743019"
             id="rect4496"
             style="fill:#363636;fill-opacity:1;stroke:#4c4c4c;stroke-width:1.64756159;stroke-miterlimit:4;stroke-dasharray:none;stroke-opacity:1" />
          <rect
             y="1079.5764"
             x="441.33191"
             height="3.0406284"
             width="72.743019"
             id="rect4496-4"
             style="fill:#363636;fill-opacity:1;stroke:#4c4c4c;stroke-width:1.64756159;stroke-miterlimit:4;stroke-dasharray:none;stroke-opacity:1" />
        </g>
      </g>
      <g
         transform="matrix(0.42193901,-0.38822236,0.69146147,0.23689846,-654.23344,866.70487)"
         id="g4545"
         style="stroke-width:1.64756159;stroke-miterlimit:4;stroke-dasharray:none">
        <rect
           style="fill:#000000;fill-opacity:1;stroke:#000000;stroke-opacity:1;stroke-width:1.64756159;stroke-miterlimit:4;stroke-dasharray:none"
           id="rect4136-1"
           width="136.76933"
           height="192.12836"
           x="249.31876"
           y="881.16785" />
        <g
           transform="translate(0,902.36216)"
           style="font-style:normal;font-weight:normal;font-size:12.5px;line-height:125%;font-family:sans-serif;letter-spacing:0px;word-spacing:0px;fill:#000000;fill-opacity:1;stroke:none;stroke-width:1.64756159;stroke-linecap:butt;stroke-linejoin:miter;stroke-opacity:1;stroke-miterlimit:4;stroke-dasharray:none"
           id="flowRoot4399">
          <path
             id="path5069"
             style="font-size:10px;fill:#ffffff;fill-opacity:1;stroke-width:1.64756159;stroke-miterlimit:4;stroke-dasharray:none"
             d="m 281.29102,159.99777 1.03027,0 0,1.24023 -1.03027,0 0,-1.24023 z m 0,3.93066 1.03027,0 0,0.83984 -0.80078,1.5625 -0.62989,0 0.4004,-1.5625 0,-0.83984 z m -4.27735,-6.34766 0.78125,0 q 0.73242,1.15235 1.09375,2.25586 0.36621,1.10352 0.36621,2.19239 0,1.09375 -0.36621,2.20214 -0.36133,1.1084 -1.09375,2.25586 l -0.78125,0 q 0.64942,-1.11816 0.9668,-2.22168 0.32226,-1.1084 0.32226,-2.23632 0,-1.12793 -0.32226,-2.22657 -0.31738,-1.09863 -0.9668,-2.22168 z m -5.91797,8.51563 0.3418,0 q 0.68359,0 0.88867,-0.20996 0.20996,-0.20996 0.20996,-0.90821 l 0,-1.21093 q 0,-0.76172 0.21973,-1.1084 0.21973,-0.34668 0.76172,-0.47852 -0.54199,-0.12207 -0.76172,-0.46875 -0.21973,-0.34668 -0.21973,-1.11328 l 0,-1.21094 q 0,-0.69336 -0.20996,-0.90332 -0.20508,-0.21484 -0.88867,-0.21484 l -0.3418,0 0,-0.69824 0.30762,0 q 1.21582,0 1.62109,0.36133 0.41016,0.35644 0.41016,1.43554 l 0,1.17188 q 0,0.72754 0.26367,1.01074 0.26367,0.27832 0.95703,0.27832 l 0.30274,0 0,0.69824 -0.30274,0 q -0.69336,0 -0.95703,0.28321 -0.26367,0.2832 -0.26367,1.0205 l 0,1.167 q 0,1.0791 -0.41016,1.44042 -0.40527,0.36133 -1.62109,0.36133 l -0.30762,0 0,-0.70312 z m 105.34668,-18.2666 q -0.72265,0 -1.14258,0.5664 -0.41992,0.56153 -0.41992,1.54297 0,0.98145 0.41504,1.54785 0.41992,0.56153 1.14746,0.56153 0.71778,0 1.1377,-0.56641 Q 378,150.91573 378,149.93917 q 0,-0.97168 -0.41992,-1.53808 -0.41992,-0.57129 -1.1377,-0.57129 z m 0,-0.76172 q 1.17188,0 1.84082,0.76172 0.66895,0.76172 0.66895,2.10937 0,1.34277 -0.66895,2.10938 -0.66894,0.76172 -1.84082,0.76172 -1.17676,0 -1.8457,-0.76172 -0.66406,-0.76661 -0.66406,-2.10938 0,-1.34765 0.66406,-2.10937 0.66894,-0.76172 1.8457,-0.76172 z m -2.85644,0.97168 q -0.15137,-0.0879 -0.33203,-0.12696 -0.17579,-0.0439 -0.39063,-0.0439 -0.76172,0 -1.17187,0.49805 -0.40528,0.49316 -0.40528,1.42089 l 0,2.88086 -0.90332,0 0,-5.46875 0.90332,0 0,0.84961 q 0.28321,-0.49804 0.73731,-0.7373 0.4541,-0.24414 1.10351,-0.24414 0.0928,0 0.20508,0.0146 0.11231,0.01 0.24902,0.0342 l 0.005,0.92285 z m -8.64746,3.80859 0,2.90039 -0.90332,0 0,-7.54883 0.90332,0 0,0.83008 q 0.2832,-0.48828 0.71289,-0.72265 0.43457,-0.23926 1.03515,-0.23926 0.9961,0 1.61621,0.79101 0.625,0.79102 0.625,2.08008 0,1.28906 -0.625,2.08008 -0.62011,0.79102 -1.61621,0.79102 -0.60058,0 -1.03515,-0.23438 -0.42969,-0.23926 -0.71289,-0.72754 z m 3.05664,-1.90918 q 0,-0.99121 -0.41016,-1.55273 -0.40527,-0.56641 -1.11816,-0.56641 -0.71289,0 -1.12305,0.56641 -0.40527,0.56152 -0.40527,1.55273 0,0.99121 0.40527,1.55762 0.41016,0.56152 1.12305,0.56152 0.71289,0 1.11816,-0.56152 0.41016,-0.56641 0.41016,-1.55762 z m -6.98242,1.48926 1.03027,0 0,1.24023 -1.03027,0 0,-1.24023 z m -1.85547,-4.06738 0,0.84961 q -0.38086,-0.19532 -0.79102,-0.29297 -0.41016,-0.0977 -0.84961,-0.0977 -0.66894,0 -1.00586,0.20508 -0.33203,0.20508 -0.33203,0.61523 0,0.3125 0.23926,0.49317 0.23926,0.17578 0.96191,0.33691 l 0.30762,0.0684 q 0.95703,0.20508 1.35742,0.58106 0.40528,0.37109 0.40528,1.04003 0,0.76172 -0.60547,1.20606 -0.60059,0.44434 -1.65528,0.44434 -0.43945,0 -0.91797,-0.0879 -0.47363,-0.083 -1.00097,-0.2539 l 0,-0.92774 q 0.49804,0.25879 0.98144,0.39063 0.4834,0.12695 0.95703,0.12695 0.63477,0 0.97657,-0.21484 0.34179,-0.21973 0.34179,-0.61524 0,-0.36621 -0.24902,-0.56152 -0.24414,-0.19531 -1.0791,-0.37598 l -0.3125,-0.0732 q -0.83496,-0.17578 -1.20606,-0.53711 -0.37109,-0.36621 -0.37109,-1.00097 0,-0.77149 0.54688,-1.19141 0.54687,-0.41992 1.55273,-0.41992 0.49805,0 0.9375,0.0732 0.43945,0.0732 0.81055,0.21973 z m -6.25977,-0.16114 0.89844,0 0,5.46875 -0.89844,0 0,-5.46875 z m 0,-2.1289 0.89844,0 0,1.13769 -0.89844,0 0,-1.13769 z m -1.80176,4.29687 0,3.30078 -0.89843,0 0,-3.27148 q 0,-0.77637 -0.30274,-1.16211 -0.30273,-0.38574 -0.9082,-0.38574 -0.72754,0 -1.14746,0.46386 -0.41992,0.46387 -0.41992,1.26465 l 0,3.09082 -0.90333,0 0,-7.59765 0.90333,0 0,2.97851 q 0.32226,-0.49316 0.75683,-0.7373 0.43945,-0.24414 1.01074,-0.24414 0.94239,0 1.42578,0.58594 0.4834,0.58105 0.4834,1.71386 z m -7.583,-3.7207 0,1.55273 1.85058,0 0,0.69825 -1.85058,0 0,2.96875 q 0,0.66894 0.18066,0.85937 0.18555,0.19043 0.74707,0.19043 l 0.92285,0 0,0.75195 -0.92285,0 q -1.04004,0 -1.43555,-0.38574 -0.39551,-0.39062 -0.39551,-1.41601 l 0,-2.96875 -0.65917,0 0,-0.69825 0.65917,0 0,-1.55273 0.90333,0 z m -7.22168,5.78125 1.03027,0 0,1.24023 -1.03027,0 0,-1.24023 z m 0,-3.93066 1.03027,0 0,1.24023 -1.03027,0 0,-1.24023 z m -5.71778,0.75195 q 0.33692,-0.60547 0.80567,-0.89356 0.46875,-0.28808 1.10351,-0.28808 0.85449,0 1.31836,0.60058 0.46387,0.59571 0.46387,1.69922 l 0,3.30078 -0.90332,0 0,-3.27148 q 0,-0.78613 -0.27832,-1.16699 -0.27832,-0.38086 -0.84961,-0.38086 -0.69824,0 -1.10352,0.46386 -0.40527,0.46387 -0.40527,1.26465 l 0,3.09082 -0.90332,0 0,-3.27148 q 0,-0.79102 -0.27832,-1.16699 -0.27832,-0.38086 -0.85938,-0.38086 -0.68847,0 -1.09375,0.46875 -0.40527,0.46386 -0.40527,1.25976 l 0,3.09082 -0.90332,0 0,-5.46875 0.90332,0 0,0.84961 q 0.30762,-0.50293 0.7373,-0.74218 0.42969,-0.23926 1.02051,-0.23926 0.59571,0 1.01074,0.30273 0.41993,0.30274 0.62012,0.87891 z m -5.73242,1.45996 0,0.43945 -4.13086,0 q 0.0586,0.92774 0.55664,1.41602 0.50293,0.4834 1.39649,0.4834 0.51757,0 1.00097,-0.12696 0.48828,-0.12695 0.9668,-0.38086 l 0,0.84961 q -0.4834,0.20508 -0.99121,0.3125 -0.50781,0.10743 -1.03028,0.10743 -1.30859,0 -2.07519,-0.76172 -0.76172,-0.76172 -0.76172,-2.06055 0,-1.34277 0.72266,-2.12891 0.72754,-0.79101 1.958,-0.79101 1.10352,0 1.74317,0.71289 0.64453,0.70801 0.64453,1.92871 z m -0.89844,-0.26367 q -0.01,-0.73731 -0.41504,-1.17676 -0.40039,-0.43945 -1.06445,-0.43945 -0.75195,0 -1.20605,0.4248 -0.44922,0.42481 -0.51758,1.19629 l 3.20312,-0.005 z m -6.8164,-3.79883 0,1.55273 1.85058,0 0,0.69825 -1.85058,0 0,2.96875 q 0,0.66894 0.18066,0.85937 0.18555,0.19043 0.74707,0.19043 l 0.92285,0 0,0.75195 -0.92285,0 q -1.04004,0 -1.43555,-0.38574 -0.3955,-0.39062 -0.3955,-1.41601 l 0,-2.96875 -0.65918,0 0,-0.69825 0.65918,0 0,-1.55273 0.90332,0 z m -3.79883,-0.26856 0.98633,0 0,7.29004 -0.98633,0 0,-7.29004 z m -3.07617,0.26856 0,1.55273 1.85058,0 0,0.69825 -1.85058,0 0,2.96875 q 0,0.66894 0.18066,0.85937 0.18555,0.19043 0.74707,0.19043 l 0.92285,0 0,0.75195 -0.92285,0 q -1.04004,0 -1.43555,-0.38574 -0.3955,-0.39062 -0.3955,-1.41601 l 0,-2.96875 -0.65918,0 0,-0.69825 0.65918,0 0,-1.55273 0.90332,0 z m -2.69043,3.7207 0,3.30078 -0.89844,0 0,-3.27148 q 0,-0.77637 -0.30274,-1.16211 -0.30273,-0.38574 -0.9082,-0.38574 -0.72754,0 -1.14746,0.46386 -0.41992,0.46387 -0.41992,1.26465 l 0,3.09082 -0.90332,0 0,-5.46875 0.90332,0 0,0.84961 q 0.32226,-0.49316 0.75683,-0.7373 0.43946,-0.24414 1.01075,-0.24414 0.94238,0 1.42578,0.58594 0.4834,0.58105 0.4834,1.71386 z m -6.02051,0.3418 0,0.43945 -4.13086,0 q 0.0586,0.92774 0.55664,1.41602 0.50293,0.4834 1.39648,0.4834 0.51758,0 1.00098,-0.12696 0.48828,-0.12695 0.9668,-0.38086 l 0,0.84961 q -0.4834,0.20508 -0.99121,0.3125 -0.50782,0.10743 -1.03028,0.10743 -1.30859,0 -2.07519,-0.76172 -0.76172,-0.76172 -0.76172,-2.06055 0,-1.34277 0.72266,-2.12891 0.72753,-0.79101 1.958,-0.79101 1.10352,0 1.74317,0.71289 0.64453,0.70801 0.64453,1.92871 z m -0.89844,-0.26367 q -0.01,-0.73731 -0.41504,-1.17676 -0.40039,-0.43945 -1.06445,-0.43945 -0.75195,0 -1.20606,0.4248 -0.44921,0.42481 -0.51757,1.19629 l 3.20312,-0.005 z m -4.5166,-1.40625 q -0.15137,-0.0879 -0.33203,-0.12696 -0.17578,-0.0439 -0.39063,-0.0439 -0.76172,0 -1.17187,0.49805 -0.40527,0.49316 -0.40527,1.42089 l 0,2.88086 -0.90333,0 0,-5.46875 0.90333,0 0,0.84961 q 0.2832,-0.49804 0.7373,-0.7373 0.4541,-0.24414 1.10352,-0.24414 0.0928,0 0.20507,0.0146 0.11231,0.01 0.24903,0.0342 l 0.005,0.92285 z m -3.94531,0 q -0.15137,-0.0879 -0.33203,-0.12696 -0.17579,-0.0439 -0.39063,-0.0439 -0.76172,0 -1.17187,0.49805 -0.40528,0.49316 -0.40528,1.42089 l 0,2.88086 -0.90332,0 0,-5.46875 0.90332,0 0,0.84961 q 0.28321,-0.49804 0.73731,-0.7373 0.4541,-0.24414 1.10351,-0.24414 0.0928,0 0.20508,0.0146 0.11231,0.01 0.24902,0.0342 l 0.005,0.92285 z m -9.60938,2.4707 0,-3.31055 0.89844,0 0,3.27637 q 0,0.77637 0.30273,1.16699 0.30274,0.38575 0.90821,0.38575 0.72754,0 1.14746,-0.46387 0.4248,-0.46387 0.4248,-1.26465 l 0,-3.10059 0.89844,0 0,5.46875 -0.89844,0 0,-0.83984 q -0.32715,0.49805 -0.76172,0.74219 -0.42968,0.23926 -1.00097,0.23926 -0.94239,0 -1.43067,-0.58594 -0.48828,-0.58594 -0.48828,-1.71387 z m 2.26074,-3.44238 0,0 z m -3.74023,0.34179 0,0.83985 q -0.38086,-0.20996 -0.7666,-0.3125 -0.38086,-0.10742 -0.77149,-0.10742 -0.87402,0 -1.35742,0.55664 -0.4834,0.55175 -0.4834,1.55273 0,1.00098 0.4834,1.55762 0.4834,0.55176 1.35742,0.55176 0.39063,0 0.77149,-0.10254 0.38574,-0.10742 0.7666,-0.31739 l 0,0.83008 q -0.37598,0.17578 -0.78125,0.26367 -0.40039,0.0879 -0.85449,0.0879 -1.23535,0 -1.96289,-0.77637 -0.72754,-0.77637 -0.72754,-2.09473 0,-1.33789 0.73242,-2.10449 0.7373,-0.7666 2.0166,-0.7666 0.41504,0 0.81055,0.0879 0.39551,0.083 0.7666,0.2539 z m 60.99609,-6.31347 0,0.70312 -0.30273,0 q -1.21582,0 -1.63086,-0.36133 -0.41016,-0.36132 -0.41016,-1.44042 l 0,-1.167 q 0,-0.7373 -0.26367,-1.0205 -0.26367,-0.28321 -0.95703,-0.28321 l -0.29785,0 0,-0.69824 0.29785,0 q 0.69824,0 0.95703,-0.27832 0.26367,-0.2832 0.26367,-1.01074 l 0,-1.17188 q 0,-1.0791 0.41016,-1.43554 0.41504,-0.36133 1.63086,-0.36133 l 0.30273,0 0,0.69824 -0.33203,0 q -0.68847,0 -0.89843,0.21484 -0.20997,0.21485 -0.20997,0.90332 l 0,1.21094 q 0,0.7666 -0.22461,1.11328 -0.21972,0.34668 -0.75683,0.46875 0.54199,0.13184 0.76172,0.47852 0.21972,0.34668 0.21972,1.1084 l 0,1.21093 q 0,0.68848 0.20997,0.90332 0.20996,0.21485 0.89843,0.21485 l 0.33203,0 z m -5.91796,-8.51563 q -0.6543,1.12305 -0.97168,2.22168 -0.31739,1.09864 -0.31739,2.22657 0,1.12792 0.31739,2.23632 0.32226,1.10352 0.97168,2.22168 l -0.78125,0 q -0.73243,-1.14746 -1.09864,-2.25586 -0.36133,-1.10839 -0.36133,-2.20214 0,-1.08887 0.36133,-2.19239 0.36133,-1.10351 1.09864,-2.25586 l 0.78125,0 z m -3.63282,4.62891 0,0.43945 -4.13086,0 q 0.0586,0.92774 0.55664,1.41602 0.50293,0.4834 1.39649,0.4834 0.51758,0 1.00097,-0.12696 0.48829,-0.12695 0.9668,-0.38086 l 0,0.84961 q -0.4834,0.20508 -0.99121,0.3125 -0.50781,0.10743 -1.03027,0.10743 -1.3086,0 -2.0752,-0.76172 -0.76172,-0.76172 -0.76172,-2.06055 0,-1.34277 0.72266,-2.12891 0.72754,-0.79101 1.95801,-0.79101 1.10351,0 1.74316,0.71289 0.64453,0.70801 0.64453,1.92871 z m -0.89843,-0.26367 q -0.01,-0.73731 -0.41504,-1.17676 -0.40039,-0.43945 -1.06446,-0.43945 -0.75195,0 -1.20605,0.4248 -0.44922,0.42481 -0.51758,1.19629 l 3.20313,-0.005 z m -6.81641,-3.79883 0,1.55273 1.85058,0 0,0.69825 -1.85058,0 0,2.96875 q 0,0.66894 0.18066,0.85937 0.18555,0.19043 0.74707,0.19043 l 0.92285,0 0,0.75195 -0.92285,0 q -1.04004,0 -1.43554,-0.38574 -0.39551,-0.39062 -0.39551,-1.41601 l 0,-2.96875 -0.65918,0 0,-0.69825 0.65918,0 0,-1.55273 0.90332,0 z m -4.53613,4.27246 q -1.08887,0 -1.50879,0.24902 -0.41992,0.24903 -0.41992,0.84961 0,0.47852 0.3125,0.76172 0.31738,0.27832 0.85937,0.27832 0.74707,0 1.19629,-0.52734 0.4541,-0.53223 0.4541,-1.41113 l 0,-0.2002 -0.89355,0 z m 1.79199,-0.37109 0,3.12011 -0.89844,0 0,-0.83007 q -0.30762,0.49804 -0.7666,0.7373 -0.45899,0.23438 -1.12305,0.23438 -0.83984,0 -1.33789,-0.46875 -0.49316,-0.47364 -0.49316,-1.26465 0,-0.92285 0.61523,-1.3916 0.62012,-0.46875 1.84571,-0.46875 l 1.25976,0 0,-0.0879 q 0,-0.62011 -0.41016,-0.95703 -0.40527,-0.34179 -1.14257,-0.34179 -0.46875,0 -0.91309,0.1123 -0.44434,0.11231 -0.85449,0.33692 l 0,-0.83008 q 0.49316,-0.19043 0.95703,-0.28321 0.46387,-0.0976 0.90332,-0.0976 1.18652,0 1.77246,0.61523 0.58594,0.61524 0.58594,1.86524 z m -7.31445,-3.90137 0,1.55273 1.85058,0 0,0.69825 -1.85058,0 0,2.96875 q 0,0.66894 0.18066,0.85937 0.18555,0.19043 0.74707,0.19043 l 0.92285,0 0,0.75195 -0.92285,0 q -1.04004,0 -1.43555,-0.38574 -0.39551,-0.39062 -0.39551,-1.41601 l 0,-2.96875 -0.65917,0 0,-0.69825 0.65917,0 0,-1.55273 0.90333,0 z m -2.82715,-0.0293 0,0.96192 q -0.56153,-0.26856 -1.05957,-0.40039 -0.49805,-0.13184 -0.96192,-0.13184 -0.80566,0 -1.24511,0.3125 -0.43458,0.3125 -0.43458,0.88867 0,0.4834 0.28809,0.73242 0.29297,0.24414 1.10352,0.39551 l 0.5957,0.12207 q 1.10352,0.20996 1.62598,0.74219 0.52734,0.52734 0.52734,1.41601 0,1.05958 -0.71289,1.60645 -0.70801,0.54688 -2.08008,0.54688 -0.51758,0 -1.10351,-0.11719 -0.58106,-0.11719 -1.20606,-0.34668 l 0,-1.01563 q 0.60059,0.33692 1.17676,0.50782 0.57617,0.17089 1.13281,0.17089 0.84473,0 1.30371,-0.33203 0.45899,-0.33203 0.45899,-0.94726 0,-0.53711 -0.33203,-0.83985 -0.32715,-0.30273 -1.07911,-0.4541 l -0.60058,-0.11719 q -1.10352,-0.21972 -1.59668,-0.68847 -0.49317,-0.46875 -0.49317,-1.30371 0,-0.9668 0.67871,-1.52344 0.6836,-0.55664 1.87989,-0.55664 0.51269,0 1.04492,0.0928 0.53223,0.0928 1.08887,0.27832 z m -7.44629,0.0293 0,1.55273 1.85058,0 0,0.69825 -1.85058,0 0,2.96875 q 0,0.66894 0.18066,0.85937 0.18555,0.19043 0.74707,0.19043 l 0.92285,0 0,0.75195 -0.92285,0 q -1.04004,0 -1.43554,-0.38574 -0.39551,-0.39062 -0.39551,-1.41601 l 0,-2.96875 -0.65918,0 0,-0.69825 0.65918,0 0,-1.55273 0.90332,0 z m -2.36328,4.0625 0,0.43945 -4.13086,0 q 0.0586,0.92774 0.55664,1.41602 0.50293,0.4834 1.39648,0.4834 0.51758,0 1.00098,-0.12696 0.48828,-0.12695 0.9668,-0.38086 l 0,0.84961 q -0.4834,0.20508 -0.99122,0.3125 -0.50781,0.10743 -1.03027,0.10743 -1.30859,0 -2.07519,-0.76172 -0.76172,-0.76172 -0.76172,-2.06055 0,-1.34277 0.72265,-2.12891 0.72754,-0.79101 1.95801,-0.79101 1.10352,0 1.74317,0.71289 0.64453,0.70801 0.64453,1.92871 z m -0.89844,-0.26367 q -0.01,-0.73731 -0.41504,-1.17676 -0.40039,-0.43945 -1.06445,-0.43945 -0.75196,0 -1.20606,0.4248 -0.44922,0.42481 -0.51758,1.19629 l 3.20313,-0.005 z m -5.50781,-2.08496 0,0.84961 q -0.38086,-0.19532 -0.79102,-0.29297 -0.41016,-0.0977 -0.84961,-0.0977 -0.66894,0 -1.00586,0.20508 -0.33203,0.20508 -0.33203,0.61523 0,0.3125 0.23926,0.49317 0.23926,0.17578 0.96191,0.33691 l 0.30762,0.0684 q 0.95703,0.20508 1.35742,0.58106 0.40528,0.37109 0.40528,1.04003 0,0.76172 -0.60547,1.20606 -0.60059,0.44434 -1.65528,0.44434 -0.43945,0 -0.91797,-0.0879 -0.47363,-0.083 -1.00097,-0.2539 l 0,-0.92774 q 0.49804,0.25879 0.98144,0.39063 0.4834,0.12695 0.95703,0.12695 0.63477,0 0.97657,-0.21484 0.34179,-0.21973 0.34179,-0.61524 0,-0.36621 -0.24902,-0.56152 -0.24414,-0.19531 -1.0791,-0.37598 l -0.3125,-0.0732 q -0.83496,-0.17578 -1.20606,-0.53711 -0.37109,-0.36621 -0.37109,-1.00097 0,-0.77149 0.54688,-1.19141 0.54687,-0.41992 1.55273,-0.41992 0.49805,0 0.9375,0.0732 0.43945,0.0732 0.81055,0.21973 z m -6.54297,4.06738 1.03027,0 0,1.24023 -1.03027,0 0,-1.24023 z m -1.85547,-4.06738 0,0.84961 q -0.38086,-0.19532 -0.79102,-0.29297 -0.41015,-0.0977 -0.84961,-0.0977 -0.66894,0 -1.00586,0.20508 -0.33203,0.20508 -0.33203,0.61523 0,0.3125 0.23926,0.49317 0.23926,0.17578 0.96192,0.33691 l 0.30761,0.0684 q 0.95703,0.20508 1.35742,0.58106 0.40528,0.37109 0.40528,1.04003 0,0.76172 -0.60547,1.20606 -0.60059,0.44434 -1.65527,0.44434 -0.43946,0 -0.91797,-0.0879 -0.47364,-0.083 -1.00098,-0.2539 l 0,-0.92774 q 0.49805,0.25879 0.98145,0.39063 0.48339,0.12695 0.95703,0.12695 0.63476,0 0.97656,-0.21484 0.3418,-0.21973 0.3418,-0.61524 0,-0.36621 -0.24903,-0.56152 -0.24414,-0.19531 -1.0791,-0.37598 l -0.3125,-0.0732 q -0.83496,-0.17578 -1.20605,-0.53711 -0.3711,-0.36621 -0.3711,-1.00097 0,-0.77149 0.54688,-1.19141 0.54687,-0.41992 1.55273,-0.41992 0.49805,0 0.9375,0.0732 0.43946,0.0732 0.81055,0.21973 z m -6.25977,-0.16114 0.89844,0 0,5.46875 -0.89844,0 0,-5.46875 z m 0,-2.1289 0.89844,0 0,1.13769 -0.89844,0 0,-1.13769 z m -1.80175,4.29687 0,3.30078 -0.89844,0 0,-3.27148 q 0,-0.77637 -0.30274,-1.16211 -0.30273,-0.38574 -0.9082,-0.38574 -0.72754,0 -1.14746,0.46386 -0.41992,0.46387 -0.41992,1.26465 l 0,3.09082 -0.90332,0 0,-7.59765 0.90332,0 0,2.97851 q 0.32226,-0.49316 0.75683,-0.7373 0.43946,-0.24414 1.01075,-0.24414 0.94238,0 1.42578,0.58594 0.4834,0.58105 0.4834,1.71386 z m -7.58301,-3.7207 0,1.55273 1.85058,0 0,0.69825 -1.85058,0 0,2.96875 q 0,0.66894 0.18066,0.85937 0.18555,0.19043 0.74707,0.19043 l 0.92285,0 0,0.75195 -0.92285,0 q -1.04004,0 -1.43554,-0.38574 -0.39551,-0.39062 -0.39551,-1.41601 l 0,-2.96875 -0.65918,0 0,-0.69825 0.65918,0 0,-1.55273 0.90332,0 z m 108.5498,-8.27637 q 0,-0.97656 -0.40527,-1.51367 -0.40039,-0.53711 -1.12793,-0.53711 -0.72266,0 -1.12793,0.53711 -0.40039,0.53711 -0.40039,1.51367 0,0.97168 0.40039,1.50879 0.40527,0.53711 1.12793,0.53711 0.72754,0 1.12793,-0.53711 0.40527,-0.53711 0.40527,-1.50879 z m 0.89844,2.11914 q 0,1.39649 -0.62012,2.0752 -0.62011,0.68359 -1.89941,0.68359 -0.47363,0 -0.89356,-0.0732 -0.41992,-0.0684 -0.81543,-0.21484 l 0,-0.87403 q 0.39551,0.21485 0.78125,0.31739 0.38575,0.10253 0.78614,0.10253 0.88379,0 1.32324,-0.46386 0.43945,-0.45899 0.43945,-1.3916 l 0,-0.44434 q -0.27832,0.4834 -0.71289,0.72266 -0.43457,0.23925 -1.04004,0.23925 -1.00586,0 -1.62109,-0.7666 -0.61524,-0.7666 -0.61524,-2.03125 0,-1.26953 0.61524,-2.03613 0.61523,-0.7666 1.62109,-0.7666 0.60547,0 1.04004,0.23926 0.43457,0.23925 0.71289,0.72265 l 0,-0.83008 0.89844,0 0,4.79004 z m -6.29883,-2.62207 0,3.30078 -0.89844,0 0,-3.27148 q 0,-0.77637 -0.30273,-1.16211 -0.30273,-0.38574 -0.9082,-0.38574 -0.72754,0 -1.14746,0.46386 -0.41993,0.46387 -0.41993,1.26465 l 0,3.09082 -0.90332,0 0,-5.46875 0.90332,0 0,0.84961 q 0.32227,-0.49316 0.75684,-0.7373 0.43945,-0.24414 1.01074,-0.24414 0.94238,0 1.42578,0.58594 0.4834,0.58105 0.4834,1.71386 z m -6.02051,0.3418 0,0.43945 -4.13086,0 q 0.0586,0.92774 0.55665,1.41602 0.50292,0.4834 1.39648,0.4834 0.51758,0 1.00098,-0.12696 0.48828,-0.12695 0.96679,-0.38086 l 0,0.84961 q -0.4834,0.20508 -0.99121,0.3125 -0.50781,0.10743 -1.03027,0.10743 -1.3086,0 -2.0752,-0.76172 -0.76172,-0.76172 -0.76172,-2.06055 0,-1.34277 0.72266,-2.12891 0.72754,-0.79101 1.95801,-0.79101 1.10351,0 1.74316,0.71289 0.64453,0.70801 0.64453,1.92871 z m -0.89843,-0.26367 q -0.01,-0.73731 -0.41504,-1.17676 -0.40039,-0.43945 -1.06446,-0.43945 -0.75195,0 -1.20605,0.4248 -0.44922,0.42481 -0.51758,1.19629 l 3.20313,-0.005 z m -6.55274,-4.375 0.89844,0 0,7.59765 -0.89844,0 0,-7.59765 z m -3.05664,6.35742 1.03027,0 0,1.24023 -1.03027,0 0,-1.24023 z m -1.85547,-4.06738 0,0.84961 q -0.38086,-0.19532 -0.79101,-0.29297 -0.41016,-0.0977 -0.84961,-0.0977 -0.66895,0 -1.00586,0.20508 -0.33203,0.20508 -0.33203,0.61523 0,0.3125 0.23925,0.49317 0.23926,0.17578 0.96192,0.33691 l 0.30762,0.0684 q 0.95703,0.20508 1.35742,0.58106 0.40527,0.37109 0.40527,1.04003 0,0.76172 -0.60547,1.20606 -0.60058,0.44434 -1.65527,0.44434 -0.43945,0 -0.91797,-0.0879 -0.47363,-0.083 -1.00098,-0.2539 l 0,-0.92774 q 0.49805,0.25879 0.98145,0.39063 0.4834,0.12695 0.95703,0.12695 0.63477,0 0.97656,-0.21484 0.3418,-0.21973 0.3418,-0.61524 0,-0.36621 -0.24902,-0.56152 -0.24414,-0.19531 -1.07911,-0.37598 l -0.3125,-0.0732 q -0.83496,-0.17578 -1.20605,-0.53711 -0.37109,-0.36621 -0.37109,-1.00097 0,-0.77149 0.54687,-1.19141 0.54688,-0.41992 1.55274,-0.41992 0.49804,0 0.9375,0.0732 0.43945,0.0732 0.81054,0.21973 z m -8.97461,0.88867 q 0.33692,-0.60547 0.80567,-0.89356 0.46875,-0.28808 1.10351,-0.28808 0.8545,0 1.31836,0.60058 0.46387,0.59571 0.46387,1.69922 l 0,3.30078 -0.90332,0 0,-3.27148 q 0,-0.78613 -0.27832,-1.16699 -0.27832,-0.38086 -0.84961,-0.38086 -0.69824,0 -1.10352,0.46386 -0.40527,0.46387 -0.40527,1.26465 l 0,3.09082 -0.90332,0 0,-3.27148 q 0,-0.79102 -0.27832,-1.16699 -0.27832,-0.38086 -0.85938,-0.38086 -0.68847,0 -1.09375,0.46875 -0.40527,0.46386 -0.40527,1.25976 l 0,3.09082 -0.90332,0 0,-5.46875 0.90332,0 0,0.84961 q 0.30762,-0.50293 0.73731,-0.74218 0.42968,-0.23926 1.0205,-0.23926 0.59571,0 1.01075,0.30273 0.41992,0.30274 0.62011,0.87891 z m -5.73242,1.45996 0,0.43945 -4.13086,0 q 0.0586,0.92774 0.55664,1.41602 0.50293,0.4834 1.39649,0.4834 0.51758,0 1.00097,-0.12696 0.48828,-0.12695 0.9668,-0.38086 l 0,0.84961 q -0.4834,0.20508 -0.99121,0.3125 -0.50781,0.10743 -1.03027,0.10743 -1.3086,0 -2.0752,-0.76172 -0.76172,-0.76172 -0.76172,-2.06055 0,-1.34277 0.72266,-2.12891 0.72754,-0.79101 1.95801,-0.79101 1.10351,0 1.74316,0.71289 0.64453,0.70801 0.64453,1.92871 z m -0.89844,-0.26367 q -0.01,-0.73731 -0.41504,-1.17676 -0.40039,-0.43945 -1.06445,-0.43945 -0.75195,0 -1.20605,0.4248 -0.44922,0.42481 -0.51758,1.19629 l 3.20312,-0.005 z m -6.8164,-3.79883 0,1.55273 1.85058,0 0,0.69825 -1.85058,0 0,2.96875 q 0,0.66894 0.18066,0.85937 0.18555,0.19043 0.74707,0.19043 l 0.92285,0 0,0.75195 -0.92285,0 q -1.04004,0 -1.43554,-0.38574 -0.39551,-0.39062 -0.39551,-1.41601 l 0,-2.96875 -0.65918,0 0,-0.69825 0.65918,0 0,-1.55273 0.90332,0 z m -3.66211,1.55273 0.89844,0 0,5.46875 -0.89844,0 0,-5.46875 z m 0,-2.1289 0.89844,0 0,1.13769 -0.89844,0 0,-1.13769 z m -3.05664,6.35742 1.03027,0 0,1.24023 -1.03027,0 0,-1.24023 z m -1.85547,-4.06738 0,0.84961 q -0.38086,-0.19532 -0.79102,-0.29297 -0.41015,-0.0977 -0.84961,-0.0977 -0.66894,0 -1.00586,0.20508 -0.33203,0.20508 -0.33203,0.61523 0,0.3125 0.23926,0.49317 0.23926,0.17578 0.96192,0.33691 l 0.30761,0.0684 q 0.95703,0.20508 1.35742,0.58106 0.40528,0.37109 0.40528,1.04003 0,0.76172 -0.60547,1.20606 -0.60059,0.44434 -1.65527,0.44434 -0.43946,0 -0.91797,-0.0879 -0.47364,-0.083 -1.00098,-0.2539 l 0,-0.92774 q 0.49805,0.25879 0.98145,0.39063 0.48339,0.12695 0.95703,0.12695 0.63476,0 0.97656,-0.21484 0.3418,-0.21973 0.3418,-0.61524 0,-0.36621 -0.24903,-0.56152 -0.24414,-0.19531 -1.0791,-0.37598 l -0.3125,-0.0732 q -0.83496,-0.17578 -1.20605,-0.53711 -0.3711,-0.36621 -0.3711,-1.00097 0,-0.77149 0.54688,-1.19141 0.54687,-0.41992 1.55273,-0.41992 0.49805,0 0.9375,0.0732 0.43946,0.0732 0.81055,0.21973 z m -8.96484,4.4873 0,2.90039 -0.90333,0 0,-7.54883 0.90333,0 0,0.83008 q 0.2832,-0.48828 0.71289,-0.72265 0.43457,-0.23926 1.03515,-0.23926 0.9961,0 1.61621,0.79101 0.625,0.79102 0.625,2.08008 0,1.28906 -0.625,2.08008 -0.62011,0.79102 -1.61621,0.79102 -0.60058,0 -1.03515,-0.23438 -0.42969,-0.23926 -0.71289,-0.72754 z m 3.05664,-1.90918 q 0,-0.99121 -0.41016,-1.55273 -0.40527,-0.56641 -1.11816,-0.56641 -0.7129,0 -1.12305,0.56641 -0.40527,0.56152 -0.40527,1.55273 0,0.99121 0.40527,1.55762 0.41015,0.56152 1.12305,0.56152 0.71289,0 1.11816,-0.56152 0.41016,-0.56641 0.41016,-1.55762 z m -7.91993,-2.10937 q -0.72265,0 -1.14257,0.5664 -0.41993,0.56153 -0.41993,1.54297 0,0.98145 0.41504,1.54785 0.41992,0.56153 1.14746,0.56153 0.71778,0 1.1377,-0.56641 0.41992,-0.56641 0.41992,-1.54297 0,-0.97168 -0.41992,-1.53808 -0.41992,-0.57129 -1.1377,-0.57129 z m 0,-0.76172 q 1.17188,0 1.84082,0.76172 0.66895,0.76172 0.66895,2.10937 0,1.34277 -0.66895,2.10938 -0.66894,0.76172 -1.84082,0.76172 -1.17675,0 -1.8457,-0.76172 -0.66406,-0.76661 -0.66406,-2.10938 0,-1.34765 0.66406,-2.10937 0.66895,-0.76172 1.8457,-0.76172 z m -2.85644,0.97168 q -0.15137,-0.0879 -0.33203,-0.12696 -0.17578,-0.0439 -0.39063,-0.0439 -0.76172,0 -1.17187,0.49805 -0.40528,0.49316 -0.40528,1.42089 l 0,2.88086 -0.90332,0 0,-5.46875 0.90332,0 0,0.84961 q 0.28321,-0.49804 0.73731,-0.7373 0.4541,-0.24414 1.10351,-0.24414 0.0928,0 0.20508,0.0147 0.11231,0.01 0.24903,0.0342 l 0.005,0.92285 z m -8.64746,3.80859 0,2.90039 -0.90332,0 0,-7.54883 0.90332,0 0,0.83008 q 0.2832,-0.48828 0.71289,-0.72265 0.43457,-0.23926 1.03515,-0.23926 0.9961,0 1.61622,0.79101 0.625,0.79102 0.625,2.08008 0,1.28906 -0.625,2.08008 -0.62012,0.79102 -1.61622,0.79102 -0.60058,0 -1.03515,-0.23438 -0.42969,-0.23926 -0.71289,-0.72754 z m 3.05664,-1.90918 q 0,-0.99121 -0.41016,-1.55273 -0.40527,-0.56641 -1.11816,-0.56641 -0.71289,0 -1.12305,0.56641 -0.40527,0.56152 -0.40527,1.55273 0,0.99121 0.40527,1.55762 0.41016,0.56152 1.12305,0.56152 0.71289,0 1.11816,-0.56152 0.41016,-0.56641 0.41016,-1.55762 z m -6.98242,1.48926 1.03027,0 0,1.24023 -1.03027,0 0,-1.24023 z m -1.85547,-4.06738 0,0.84961 q -0.38086,-0.19532 -0.79102,-0.29297 -0.41015,-0.0977 -0.84961,-0.0977 -0.66894,0 -1.00586,0.20508 -0.33203,0.20508 -0.33203,0.61523 0,0.3125 0.23926,0.49317 0.23926,0.17578 0.96191,0.33691 l 0.30762,0.0684 q 0.95703,0.20508 1.35742,0.58106 0.40528,0.37109 0.40528,1.04003 0,0.76172 -0.60547,1.20606 -0.60059,0.44434 -1.65528,0.44434 -0.43945,0 -0.91796,-0.0879 -0.47364,-0.083 -1.00098,-0.2539 l 0,-0.92774 q 0.49805,0.25879 0.98144,0.39063 0.4834,0.12695 0.95704,0.12695 0.63476,0 0.97656,-0.21484 0.34179,-0.21973 0.34179,-0.61524 0,-0.36621 -0.24902,-0.56152 -0.24414,-0.19531 -1.0791,-0.37598 l -0.3125,-0.0732 q -0.83496,-0.17578 -1.20605,-0.53711 -0.3711,-0.36621 -0.3711,-1.00097 0,-0.77149 0.54688,-1.19141 0.54687,-0.41992 1.55273,-0.41992 0.49805,0 0.9375,0.0732 0.43945,0.0732 0.81055,0.21973 z m -6.25977,-0.16114 0.89844,0 0,5.46875 -0.89844,0 0,-5.46875 z m 0,-2.1289 0.89844,0 0,1.13769 -0.89844,0 0,-1.13769 z m -1.80176,4.29687 0,3.30078 -0.89843,0 0,-3.27148 q 0,-0.77637 -0.30274,-1.16211 -0.30273,-0.38574 -0.9082,-0.38574 -0.72754,0 -1.14746,0.46386 -0.41992,0.46387 -0.41992,1.26465 l 0,3.09082 -0.90332,0 0,-7.59765 0.90332,0 0,2.97851 q 0.32226,-0.49316 0.75683,-0.7373 0.43946,-0.24414 1.01074,-0.24414 0.94239,0 1.42579,0.58594 0.48339,0.58105 0.48339,1.71386 z m -7.583,-3.7207 0,1.55273 1.85058,0 0,0.69825 -1.85058,0 0,2.96875 q 0,0.66894 0.18066,0.85937 0.18555,0.19043 0.74707,0.19043 l 0.92285,0 0,0.75195 -0.92285,0 q -1.04004,0 -1.43555,-0.38574 -0.3955,-0.39062 -0.3955,-1.41601 l 0,-2.96875 -0.65918,0 0,-0.69825 0.65918,0 0,-1.55273 0.90332,0 z m -2.63672,-0.56641 q -0.6543,1.12305 -0.97168,2.22168 -0.31738,1.09864 -0.31738,2.22657 0,1.12792 0.31738,2.23632 0.32226,1.10352 0.97168,2.22168 l -0.78125,0 q -0.73242,-1.14746 -1.09864,-2.25586 -0.36132,-1.10839 -0.36132,-2.20214 0,-1.08887 0.36132,-2.19239 0.36133,-1.10351 1.09864,-2.25586 l 0.78125,0 z m -6.08887,-0.01 0,0.74707 -0.85937,0 q -0.4834,0 -0.67383,0.19531 -0.18555,0.19531 -0.18555,0.70313 l 0,0.48339 1.47949,0 0,0.69825 -1.47949,0 0,4.7705 -0.90332,0 0,-4.7705 -0.85937,0 0,-0.69825 0.85937,0 0,-0.38086 q 0,-0.91308 0.4248,-1.32812 0.42481,-0.41992 1.34766,-0.41992 l 0.84961,0 z m -5.54199,2.1289 0.89844,0 0,5.46875 -0.89844,0 0,-5.46875 z m 0,-2.1289 0.89844,0 0,1.13769 -0.89844,0 0,-1.13769 z m 113.58398,-3.97461 0,0.70312 -0.30273,0 q -1.21582,0 -1.63086,-0.36133 -0.41016,-0.36132 -0.41016,-1.44042 l 0,-1.167 q 0,-0.7373 -0.26367,-1.0205 -0.26367,-0.28321 -0.95703,-0.28321 l -0.29785,0 0,-0.69824 0.29785,0 q 0.69824,0 0.95703,-0.27832 0.26367,-0.2832 0.26367,-1.01074 l 0,-1.17188 q 0,-1.0791 0.41016,-1.43554 0.41504,-0.36133 1.63086,-0.36133 l 0.30273,0 0,0.69824 -0.33203,0 q -0.68848,0 -0.89844,0.21484 -0.20996,0.21485 -0.20996,0.90332 l 0,1.21094 q 0,0.7666 -0.22461,1.11328 -0.21972,0.34668 -0.75683,0.46875 0.54199,0.13184 0.76172,0.47852 0.21972,0.34668 0.21972,1.1084 l 0,1.21093 q 0,0.68848 0.20996,0.90332 0.20996,0.21485 0.89844,0.21485 l 0.33203,0 z m -11.40136,-8.51563 0.78125,0 q 0.73242,1.15235 1.09375,2.25586 0.36621,1.10352 0.36621,2.19239 0,1.09375 -0.36621,2.20214 -0.36133,1.1084 -1.09375,2.25586 l -0.78125,0 q 0.64941,-1.11816 0.96679,-2.22168 0.32227,-1.1084 0.32227,-2.23632 0,-1.12793 -0.32227,-2.22657 -0.31738,-1.09863 -0.96679,-2.22168 z m -1.60645,0 q -0.6543,1.12305 -0.97168,2.22168 -0.31738,1.09864 -0.31738,2.22657 0,1.12792 0.31738,2.23632 0.32227,1.10352 0.97168,2.22168 l -0.78125,0 q -0.73242,-1.14746 -1.09863,-2.25586 -0.36133,-1.10839 -0.36133,-2.20214 0,-1.08887 0.36133,-2.19239 0.36133,-1.10351 1.09863,-2.25586 l 0.78125,0 z m -5.19531,0.56641 0,1.55273 1.85058,0 0,0.69825 -1.85058,0 0,2.96875 q 0,0.66894 0.18066,0.85937 0.18555,0.19043 0.74707,0.19043 l 0.92285,0 0,0.75195 -0.92285,0 q -1.04004,0 -1.43554,-0.38574 -0.39551,-0.39062 -0.39551,-1.41601 l 0,-2.96875 -0.65918,0 0,-0.69825 0.65918,0 0,-1.55273 0.90332,0 z m -2.69043,3.7207 0,3.30078 -0.89844,0 0,-3.27148 q 0,-0.77637 -0.30273,-1.16211 -0.30274,-0.38574 -0.90821,-0.38574 -0.72754,0 -1.14746,0.46386 -0.41992,0.46387 -0.41992,1.26465 l 0,3.09082 -0.90332,0 0,-5.46875 0.90332,0 0,0.84961 q 0.32227,-0.49316 0.75684,-0.7373 0.43945,-0.24414 1.01074,-0.24414 0.94238,0 1.42578,0.58594 0.4834,0.58105 0.4834,1.71386 z m -10.98633,1.14258 0,-3.31055 0.89844,0 0,3.27637 q 0,0.77637 0.30273,1.16699 0.30274,0.38575 0.9082,0.38575 0.72754,0 1.14747,-0.46387 0.4248,-0.46387 0.4248,-1.26465 l 0,-3.10059 0.89844,0 0,5.46875 -0.89844,0 0,-0.83984 q -0.32715,0.49805 -0.76172,0.74219 -0.42969,0.23926 -1.00097,0.23926 -0.94239,0 -1.43067,-0.58594 -0.48828,-0.58594 -0.48828,-1.71387 z m 2.26074,-3.44238 0,0 z m -6.16211,0.76172 q -0.72265,0 -1.14258,0.5664 -0.41992,0.56153 -0.41992,1.54297 0,0.98145 0.41504,1.54785 0.41992,0.56153 1.14746,0.56153 0.71778,0 1.1377,-0.56641 0.41992,-0.56641 0.41992,-1.54297 0,-0.97168 -0.41992,-1.53808 -0.41992,-0.57129 -1.1377,-0.57129 z m 0,-0.76172 q 1.17188,0 1.84082,0.76172 0.66895,0.76172 0.66895,2.10937 0,1.34277 -0.66895,2.10938 -0.66894,0.76172 -1.84082,0.76172 -1.17676,0 -1.8457,-0.76172 -0.66406,-0.76661 -0.66406,-2.10938 0,-1.34765 0.66406,-2.10937 0.66894,-0.76172 1.8457,-0.76172 z m -10.71289,-1.68946 1.46973,0 1.86035,4.96094 1.87012,-4.96094 1.46972,0 0,7.29004 -0.96191,0 0,-6.40136 -1.87988,5 -0.99121,0 -1.87989,-5 0,6.40136 -0.95703,0 0,-7.29004 z m -2.78808,2.65137 0,-2.95898 0.89843,0 0,7.59765 -0.89843,0 0,-0.82031 q -0.28321,0.48828 -0.71778,0.72754 -0.42968,0.23438 -1.03515,0.23438 -0.99121,0 -1.61621,-0.79102 -0.62012,-0.79102 -0.62012,-2.08008 0,-1.28906 0.62012,-2.08008 0.625,-0.79101 1.61621,-0.79101 0.60547,0 1.03515,0.23926 0.43457,0.23437 0.71778,0.72265 z m -3.06153,1.90918 q 0,0.99121 0.40528,1.55762 0.41015,0.56152 1.12304,0.56152 0.71289,0 1.12305,-0.56152 0.41016,-0.56641 0.41016,-1.55762 0,-0.99121 -0.41016,-1.55273 -0.41016,-0.56641 -1.12305,-0.56641 -0.71289,0 -1.12304,0.56641 -0.40528,0.56152 -0.40528,1.55273 z m -3.31054,-2.73926 0.89843,0 0,5.46875 -0.89843,0 0,-5.46875 z m 0,-2.1289 0.89843,0 0,1.13769 -0.89843,0 0,-1.13769 z m -6.66993,1.11816 0,5.66895 1.19141,0 q 1.50879,0 2.20703,-0.6836 0.70313,-0.68359 0.70313,-2.1582 0,-1.46484 -0.70313,-2.14355 -0.69824,-0.6836 -2.20703,-0.6836 l -1.19141,0 z m -0.98632,-0.81055 2.02636,0 q 2.11914,0 3.11035,0.88379 0.99122,0.87891 0.99122,2.75391 0,1.88477 -0.9961,2.76855 -0.99609,0.88379 -3.10547,0.88379 l -2.02636,0 0,-7.29004 z m -3.07618,0.26856 0,1.55273 1.85059,0 0,0.69825 -1.85059,0 0,2.96875 q 0,0.66894 0.18067,0.85937 0.18554,0.19043 0.74707,0.19043 l 0.92285,0 0,0.75195 -0.92285,0 q -1.04004,0 -1.43555,-0.38574 -0.39551,-0.39062 -0.39551,-1.41601 l 0,-2.96875 -0.65918,0 0,-0.69825 0.65918,0 0,-1.55273 0.90332,0 z m -2.69043,3.7207 0,3.30078 -0.89843,0 0,-3.27148 q 0,-0.77637 -0.30274,-1.16211 -0.30273,-0.38574 -0.9082,-0.38574 -0.72754,0 -1.14746,0.46386 -0.41992,0.46387 -0.41992,1.26465 l 0,3.09082 -0.90332,0 0,-5.46875 0.90332,0 0,0.84961 q 0.32226,-0.49316 0.75683,-0.7373 0.43946,-0.24414 1.01074,-0.24414 0.94239,0 1.42579,0.58594 0.48339,0.58105 0.48339,1.71386 z m -6.0205,0.3418 0,0.43945 -4.13086,0 q 0.0586,0.92774 0.55664,1.41602 0.50293,0.4834 1.39648,0.4834 0.51758,0 1.00098,-0.12696 0.48828,-0.12695 0.9668,-0.38086 l 0,0.84961 q -0.4834,0.20508 -0.99122,0.3125 -0.50781,0.10743 -1.03027,0.10743 -1.30859,0 -2.07519,-0.76172 -0.76172,-0.76172 -0.76172,-2.06055 0,-1.34277 0.72265,-2.12891 0.72754,-0.79101 1.95801,-0.79101 1.10352,0 1.74317,0.71289 0.64453,0.70801 0.64453,1.92871 z m -0.89844,-0.26367 q -0.01,-0.73731 -0.41504,-1.17676 -0.40039,-0.43945 -1.06445,-0.43945 -0.75196,0 -1.20606,0.4248 -0.44922,0.42481 -0.51758,1.19629 l 3.20313,-0.005 z m -5.58106,-0.0781 0,3.30078 -0.89843,0 0,-3.27148 q 0,-0.77637 -0.30274,-1.16211 -0.30273,-0.38574 -0.9082,-0.38574 -0.72754,0 -1.14746,0.46386 -0.41992,0.46387 -0.41992,1.26465 l 0,3.09082 -0.90332,0 0,-5.46875 0.90332,0 0,0.84961 q 0.32226,-0.49316 0.75683,-0.7373 0.43946,-0.24414 1.01074,-0.24414 0.94239,0 1.42579,0.58594 0.48339,0.58105 0.48339,1.71386 z m -8.54003,-1.53808 q -0.72266,0 -1.14258,0.5664 -0.41992,0.56153 -0.41992,1.54297 0,0.98145 0.41503,1.54785 0.41993,0.56153 1.14747,0.56153 0.71777,0 1.13769,-0.56641 0.41992,-0.56641 0.41992,-1.54297 0,-0.97168 -0.41992,-1.53808 -0.41992,-0.57129 -1.13769,-0.57129 z m 0,-0.76172 q 1.17187,0 1.84082,0.76172 0.66894,0.76172 0.66894,2.10937 0,1.34277 -0.66894,2.10938 -0.66895,0.76172 -1.84082,0.76172 -1.17676,0 -1.84571,-0.76172 -0.66406,-0.76661 -0.66406,-2.10938 0,-1.34765 0.66406,-2.10937 0.66895,-0.76172 1.84571,-0.76172 z m -7.59766,4.78027 0,2.90039 -0.90332,0 0,-7.54883 0.90332,0 0,0.83008 q 0.2832,-0.48828 0.71289,-0.72265 0.43457,-0.23926 1.03516,-0.23926 0.99609,0 1.61621,0.79101 0.625,0.79102 0.625,2.08008 0,1.28906 -0.625,2.08008 -0.62012,0.79102 -1.61621,0.79102 -0.60059,0 -1.03516,-0.23438 -0.42969,-0.23926 -0.71289,-0.72754 z m 3.05664,-1.90918 q 0,-0.99121 -0.41016,-1.55273 -0.40527,-0.56641 -1.11816,-0.56641 -0.71289,0 -1.12305,0.56641 -0.40527,0.56152 -0.40527,1.55273 0,0.99121 0.40527,1.55762 0.41016,0.56152 1.12305,0.56152 0.71289,0 1.11816,-0.56152 0.41016,-0.56641 0.41016,-1.55762 z m -9.41406,-1.68945 q 0.33691,-0.60547 0.80566,-0.89356 0.46875,-0.28808 1.10352,-0.28808 0.85449,0 1.31836,0.60058 0.46386,0.59571 0.46386,1.69922 l 0,3.30078 -0.90332,0 0,-3.27148 q 0,-0.78613 -0.27832,-1.16699 -0.27832,-0.38086 -0.84961,-0.38086 -0.69824,0 -1.10351,0.46386 -0.40528,0.46387 -0.40528,1.26465 l 0,3.09082 -0.90332,0 0,-3.27148 q 0,-0.79102 -0.27832,-1.16699 -0.27832,-0.38086 -0.85937,-0.38086 -0.68848,0 -1.09375,0.46875 -0.40527,0.46386 -0.40527,1.25976 l 0,3.09082 -0.90333,0 0,-5.46875 0.90333,0 0,0.84961 q 0.30761,-0.50293 0.7373,-0.74218 0.42969,-0.23926 1.02051,-0.23926 0.5957,0 1.01074,0.30273 0.41992,0.30274 0.62012,0.87891 z m -8.25196,-0.41992 q -0.72265,0 -1.14257,0.5664 -0.41993,0.56153 -0.41993,1.54297 0,0.98145 0.41504,1.54785 0.41992,0.56153 1.14746,0.56153 0.71778,0 1.1377,-0.56641 0.41992,-0.56641 0.41992,-1.54297 0,-0.97168 -0.41992,-1.53808 -0.41992,-0.57129 -1.1377,-0.57129 z m 0,-0.76172 q 1.17188,0 1.84082,0.76172 0.66895,0.76172 0.66895,2.10937 0,1.34277 -0.66895,2.10938 -0.66894,0.76172 -1.84082,0.76172 -1.17675,0 -1.8457,-0.76172 -0.66406,-0.76661 -0.66406,-2.10938 0,-1.34765 0.66406,-2.10937 0.66895,-0.76172 1.8457,-0.76172 z m -3.6914,0.34179 0,0.83985 q -0.38086,-0.20996 -0.7666,-0.3125 -0.38086,-0.10742 -0.77149,-0.10742 -0.87402,0 -1.35742,0.55664 -0.4834,0.55175 -0.4834,1.55273 0,1.00098 0.4834,1.55762 0.4834,0.55176 1.35742,0.55176 0.39063,0 0.77149,-0.10254 0.38574,-0.10742 0.7666,-0.31739 l 0,0.83008 q -0.37598,0.17578 -0.78125,0.26367 -0.40039,0.0879 -0.85449,0.0879 -1.23536,0 -1.9629,-0.77637 -0.72753,-0.77637 -0.72753,-2.09473 0,-1.33789 0.73242,-2.10449 0.7373,-0.7666 2.0166,-0.7666 0.41504,0 0.81055,0.0879 0.3955,0.083 0.7666,0.2539 z m 2.66113,-24.912105 1.03027,0 0,1.240234 -1.03027,0 0,-1.240234 z m 0,3.930664 1.03027,0 0,0.839844 -0.80078,1.5625 -0.62988,0 0.40039,-1.5625 0,-0.839844 z m -6.28906,2.167969 0.34179,0 q 0.6836,0 0.88868,-0.209961 0.20996,-0.209961 0.20996,-0.908203 l 0,-1.210938 q 0,-0.761718 0.21972,-1.108398 0.21973,-0.34668 0.76172,-0.478516 -0.54199,-0.12207 -0.76172,-0.46875 -0.21972,-0.346679 -0.21972,-1.113281 l 0,-1.210938 q 0,-0.693359 -0.20996,-0.90332 -0.20508,-0.214844 -0.88868,-0.214844 l -0.34179,0 0,-0.698242 0.30762,0 q 1.21582,0 1.62109,0.361328 0.41016,0.356446 0.41016,1.435547 l 0,1.171875 q 0,0.727539 0.26367,1.010742 0.26367,0.278321 0.95703,0.278321 l 0.30273,0 0,0.698242 -0.30273,0 q -0.69336,0 -0.95703,0.283203 -0.26367,0.283203 -0.26367,1.020508 l 0,1.166992 q 0,1.079102 -0.41016,1.44043 -0.40527,0.361328 -1.62109,0.361328 l -0.30762,0 0,-0.703125 z m 86.99707,-21.025391 0.89844,0 0,7.597656 -0.89844,0 0,-7.597656 z m -2.77344,0 0.89844,0 0,7.597656 -0.89844,0 0,-7.597656 z m -6.44043,5.439453 0,-3.310547 0.89844,0 0,3.276368 q 0,0.776367 0.30273,1.166992 0.30274,0.385742 0.90821,0.385742 0.72754,0 1.14746,-0.463867 0.4248,-0.463867 0.4248,-1.264649 l 0,-3.100586 0.89844,0 0,5.46875 -0.89844,0 0,-0.839843 q -0.32715,0.498047 -0.76172,0.742187 -0.42968,0.239258 -1.00097,0.239258 -0.94239,0 -1.43067,-0.585937 -0.48828,-0.585938 -0.48828,-1.713868 z m 2.26074,-3.442382 0,0 z m -3.96972,2.299804 0,3.300781 -0.89844,0 0,-3.271484 q 0,-0.776367 -0.30274,-1.162109 -0.30273,-0.385742 -0.9082,-0.385742 -0.72754,0 -1.14746,0.463867 -0.41992,0.463867 -0.41992,1.264648 l 0,3.09082 -0.90332,0 0,-5.46875 0.90332,0 0,0.84961 q 0.32226,-0.493164 0.75683,-0.737305 0.43946,-0.24414 1.01075,-0.24414 0.94238,0 1.42578,0.585937 0.4834,0.581055 0.4834,1.713867 z m -10.87891,2.060547 1.03027,0 0,1.240234 -1.03027,0 0,-1.240234 z m 0,-3.930664 1.03027,0 0,1.240234 -1.03027,0 0,-1.240234 z m -5.71777,0.751953 q 0.33691,-0.605469 0.80566,-0.893555 0.46875,-0.288085 1.10352,-0.288085 0.85449,0 1.31836,0.600585 0.46386,0.595704 0.46386,1.699219 l 0,3.300781 -0.90332,0 0,-3.271484 q 0,-0.786133 -0.27832,-1.166992 -0.27832,-0.380859 -0.84961,-0.380859 -0.69824,0 -1.10351,0.463867 -0.40528,0.463867 -0.40528,1.264648 l 0,3.09082 -0.90332,0 0,-3.271484 q 0,-0.791016 -0.27832,-1.166992 -0.27832,-0.380859 -0.85937,-0.380859 -0.68848,0 -1.09375,0.46875 -0.40527,0.463867 -0.40527,1.259765 l 0,3.09082 -0.90333,0 0,-5.46875 0.90333,0 0,0.84961 q 0.30761,-0.50293 0.7373,-0.742188 0.42969,-0.239257 1.02051,-0.239257 0.5957,0 1.01074,0.302734 0.41992,0.302734 0.62012,0.878906 z m -5.73242,1.459961 0,0.439453 -4.13086,0 q 0.0586,0.927735 0.55664,1.416016 0.50293,0.483398 1.39648,0.483398 0.51758,0 1.00098,-0.126953 0.48828,-0.126953 0.96679,-0.380859 l 0,0.849609 q -0.48339,0.205078 -0.99121,0.3125 -0.50781,0.107422 -1.03027,0.107422 -1.30859,0 -2.0752,-0.761719 -0.76171,-0.761718 -0.76171,-2.060547 0,-1.342773 0.72265,-2.128906 0.72754,-0.791015 1.95801,-0.791015 1.10352,0 1.74316,0.71289 0.64454,0.708008 0.64454,1.928711 z m -0.89844,-0.263672 q -0.01,-0.737304 -0.41504,-1.176758 -0.40039,-0.439453 -1.06445,-0.439453 -0.75196,0 -1.20606,0.424805 -0.44922,0.424805 -0.51758,1.196289 l 3.20313,-0.0049 z m -6.81641,-3.798828 0,1.552734 1.85059,0 0,0.698243 -1.85059,0 0,2.96875 q 0,0.668945 0.18067,0.859375 0.18554,0.190429 0.74707,0.190429 l 0.92285,0 0,0.751953 -0.92285,0 q -1.04004,0 -1.43555,-0.385742 -0.39551,-0.390625 -0.39551,-1.416015 l 0,-2.96875 -0.65918,0 0,-0.698243 0.65918,0 0,-1.552734 0.90332,0 z m -3.79883,-0.268555 0.98633,0 0,7.290039 -0.98633,0 0,-7.290039 z m -3.07617,0.268555 0,1.552734 1.85059,0 0,0.698243 -1.85059,0 0,2.96875 q 0,0.668945 0.18067,0.859375 0.18554,0.190429 0.74707,0.190429 l 0.92285,0 0,0.751953 -0.92285,0 q -1.04004,0 -1.43555,-0.385742 -0.39551,-0.390625 -0.39551,-1.416015 l 0,-2.96875 -0.65918,0 0,-0.698243 0.65918,0 0,-1.552734 0.90332,0 z m -2.69043,3.720703 0,3.300781 -0.89844,0 0,-3.271484 q 0,-0.776367 -0.30273,-1.162109 -0.30273,-0.385742 -0.9082,-0.385742 -0.72754,0 -1.14746,0.463867 -0.41993,0.463867 -0.41993,1.264648 l 0,3.09082 -0.90332,0 0,-5.46875 0.90332,0 0,0.84961 q 0.32227,-0.493164 0.75684,-0.737305 0.43945,-0.24414 1.01074,-0.24414 0.94238,0 1.42578,0.585937 0.4834,0.581055 0.4834,1.713867 z m -6.02051,0.341797 0,0.439453 -4.13086,0 q 0.0586,0.927735 0.55665,1.416016 0.50292,0.483398 1.39648,0.483398 0.51758,0 1.00098,-0.126953 0.48828,-0.126953 0.96679,-0.380859 l 0,0.849609 q -0.4834,0.205078 -0.99121,0.3125 -0.50781,0.107422 -1.03027,0.107422 -1.3086,0 -2.0752,-0.761719 -0.76172,-0.761718 -0.76172,-2.060547 0,-1.342773 0.72266,-2.128906 0.72754,-0.791015 1.95801,-0.791015 1.10351,0 1.74316,0.71289 0.64453,0.708008 0.64453,1.928711 z m -0.89843,-0.263672 q -0.01,-0.737304 -0.41504,-1.176758 -0.40039,-0.439453 -1.06446,-0.439453 -0.75195,0 -1.20605,0.424805 -0.44922,0.424805 -0.51758,1.196289 l 3.20313,-0.0049 z m -4.51661,-1.40625 q -0.15136,-0.08789 -0.33203,-0.126953 -0.17578,-0.04394 -0.39062,-0.04394 -0.76172,0 -1.17188,0.498047 -0.40527,0.493164 -0.40527,1.420898 l 0,2.880859 -0.90332,0 0,-5.46875 0.90332,0 0,0.84961 q 0.2832,-0.498047 0.7373,-0.737305 0.45411,-0.24414 1.10352,-0.24414 0.0928,0 0.20508,0.01465 0.1123,0.0098 0.24902,0.03418 l 0.005,0.922851 z m -3.94531,0 q -0.15136,-0.08789 -0.33203,-0.126953 -0.17578,-0.04394 -0.39062,-0.04394 -0.76172,0 -1.17188,0.498047 -0.40527,0.493164 -0.40527,1.420898 l 0,2.880859 -0.90332,0 0,-5.46875 0.90332,0 0,0.84961 q 0.2832,-0.498047 0.7373,-0.737305 0.4541,-0.24414 1.10352,-0.24414 0.0928,0 0.20508,0.01465 0.1123,0.0098 0.24902,0.03418 l 0.005,0.922851 z m -9.60937,2.470703 0,-3.310547 0.89843,0 0,3.276368 q 0,0.776367 0.30274,1.166992 0.30273,0.385742 0.9082,0.385742 0.72754,0 1.14746,-0.463867 0.42481,-0.463867 0.42481,-1.264649 l 0,-3.100586 0.89844,0 0,5.46875 -0.89844,0 0,-0.839843 q -0.32715,0.498047 -0.76172,0.742187 -0.42969,0.239258 -1.00098,0.239258 -0.94238,0 -1.43066,-0.585937 -0.48828,-0.585938 -0.48828,-1.713868 z m 2.26074,-3.442382 0,0 z m -3.74023,0.341796 0,0.839844 q -0.38086,-0.209961 -0.76661,-0.3125 -0.38086,-0.107422 -0.77148,-0.107422 -0.87402,0 -1.35742,0.556641 -0.4834,0.551758 -0.4834,1.552734 0,1.000977 0.4834,1.557617 0.4834,0.551758 1.35742,0.551758 0.39062,0 0.77148,-0.102539 0.38575,-0.107422 0.76661,-0.317383 l 0,0.830079 q -0.37598,0.175781 -0.78125,0.263671 -0.4004,0.08789 -0.8545,0.08789 -1.23535,0 -1.96289,-0.776367 -0.72754,-0.776367 -0.72754,-2.094727 0,-1.33789 0.73243,-2.104492 0.7373,-0.766601 2.0166,-0.766601 0.41504,0 0.81054,0.08789 0.39551,0.08301 0.76661,0.253906 z m 38.48144,-8.481445 1.03027,0 0,0.839844 -0.80078,1.5625 -0.62988,0 0.40039,-1.5625 0,-0.839844 z m -2.03613,-6.357422 0,8.916016 -2.07031,0 0,-0.698242 1.16699,0 0,-7.519532 -1.16699,0 0,-0.698242 2.07031,0 z m -6.08887,0 2.07031,0 0,0.698242 -1.17187,0 0,7.519532 1.17187,0 0,0.698242 -2.07031,0 0,-8.916016 z m -6.25,6.357422 1.03027,0 0,1.240234 -1.03027,0 0,-1.240234 z m 0,-3.930664 1.03027,0 0,1.240234 -1.03027,0 0,-1.240234 z m -1.95801,-0.136719 0,0.84961 q -0.38086,-0.195313 -0.79101,-0.292969 -0.41016,-0.09766 -0.84961,-0.09766 -0.66895,0 -1.00586,0.205078 -0.33203,0.205078 -0.33203,0.615234 0,0.3125 0.23925,0.493164 0.23926,0.175781 0.96192,0.336914 l 0.30762,0.06836 q 0.95703,0.205078 1.35742,0.581054 0.40527,0.371094 0.40527,1.040039 0,0.761719 -0.60547,1.206055 -0.60058,0.444336 -1.65527,0.444336 -0.43945,0 -0.91797,-0.08789 -0.47363,-0.08301 -1.00098,-0.253906 l 0,-0.927734 q 0.49805,0.258789 0.98145,0.390625 0.4834,0.126953 0.95703,0.126953 0.63477,0 0.97656,-0.214844 0.3418,-0.219726 0.3418,-0.615234 0,-0.366211 -0.24902,-0.561524 -0.24414,-0.195312 -1.07911,-0.375976 l -0.3125,-0.07324 q -0.83496,-0.175782 -1.20605,-0.53711 -0.37109,-0.366211 -0.37109,-1.000976 0,-0.771485 0.54687,-1.191407 0.54688,-0.419921 1.55274,-0.419921 0.49804,0 0.9375,0.07324 0.43945,0.07324 0.81054,0.219726 z m -8.97461,0.888672 q 0.33692,-0.605469 0.80567,-0.893555 0.46875,-0.288085 1.10351,-0.288085 0.8545,0 1.31836,0.600585 0.46387,0.595704 0.46387,1.699219 l 0,3.300781 -0.90332,0 0,-3.271484 q 0,-0.786133 -0.27832,-1.166992 -0.27832,-0.380859 -0.84961,-0.380859 -0.69824,0 -1.10352,0.463867 -0.40527,0.463867 -0.40527,1.264648 l 0,3.09082 -0.90332,0 0,-3.271484 q 0,-0.791016 -0.27832,-1.166992 -0.27832,-0.380859 -0.85938,-0.380859 -0.68847,0 -1.09375,0.46875 -0.40527,0.463867 -0.40527,1.259765 l 0,3.09082 -0.90332,0 0,-5.46875 0.90332,0 0,0.84961 q 0.30762,-0.50293 0.73731,-0.742188 0.42968,-0.239257 1.0205,-0.239257 0.59571,0 1.01075,0.302734 0.41992,0.302734 0.62011,0.878906 z m -5.73242,1.459961 0,0.439453 -4.13086,0 q 0.0586,0.927735 0.55664,1.416016 0.50293,0.483398 1.39649,0.483398 0.51758,0 1.00097,-0.126953 0.48828,-0.126953 0.9668,-0.380859 l 0,0.849609 q -0.4834,0.205078 -0.99121,0.3125 -0.50781,0.107422 -1.03027,0.107422 -1.3086,0 -2.0752,-0.761719 -0.76172,-0.761718 -0.76172,-2.060547 0,-1.342773 0.72266,-2.128906 0.72754,-0.791015 1.95801,-0.791015 1.10351,0 1.74316,0.71289 0.64453,0.708008 0.64453,1.928711 z m -0.89844,-0.263672 q -0.01,-0.737304 -0.41504,-1.176758 -0.40039,-0.439453 -1.06445,-0.439453 -0.75195,0 -1.20605,0.424805 -0.44922,0.424805 -0.51758,1.196289 l 3.20312,-0.0049 z m -6.8164,-3.798828 0,1.552734 1.85058,0 0,0.698243 -1.85058,0 0,2.96875 q 0,0.668945 0.18066,0.859375 0.18555,0.190429 0.74707,0.190429 l 0.92285,0 0,0.751953 -0.92285,0 q -1.04004,0 -1.43554,-0.385742 -0.39551,-0.390625 -0.39551,-1.416015 l 0,-2.96875 -0.65918,0 0,-0.698243 0.65918,0 0,-1.552734 0.90332,0 z m -3.66211,1.552734 0.89844,0 0,5.46875 -0.89844,0 0,-5.46875 z m 0,-2.128906 0.89844,0 0,1.137696 -0.89844,0 0,-1.137696 z m 37.90039,-3.974609 0,0.703125 -0.30274,0 q -1.21582,0 -1.63085,-0.361328 -0.41016,-0.361328 -0.41016,-1.44043 l 0,-1.166992 q 0,-0.737305 -0.26367,-1.020508 -0.26367,-0.283203 -0.95703,-0.283203 l -0.29786,0 0,-0.698242 0.29786,0 q 0.69824,0 0.95703,-0.278321 0.26367,-0.283203 0.26367,-1.010742 l 0,-1.171875 q 0,-1.079101 0.41016,-1.435547 0.41503,-0.361328 1.63085,-0.361328 l 0.30274,0 0,0.698242 -0.33203,0 q -0.68848,0 -0.89844,0.214844 -0.20996,0.214844 -0.20996,0.90332 l 0,1.210938 q 0,0.766602 -0.22461,1.113281 -0.21973,0.34668 -0.75684,0.46875 0.542,0.131836 0.76172,0.478516 0.21973,0.34668 0.21973,1.108398 l 0,1.210938 q 0,0.688476 0.20996,0.90332 0.20996,0.214844 0.89844,0.214844 l 0.33203,0 z m -15.61524,-5.46875 6.25977,0 0,0.820312 -6.25977,0 0,-0.820312 z m 0,1.992187 6.25977,0 0,0.830078 -6.25977,0 0,-0.830078 z m -4.77539,-0.410156 0,0.439453 -4.13086,0 q 0.0586,0.927735 0.55665,1.416016 0.50292,0.483398 1.39648,0.483398 0.51758,0 1.00098,-0.126953 0.48828,-0.126953 0.96679,-0.380859 l 0,0.849609 q -0.4834,0.205078 -0.99121,0.3125 -0.50781,0.107422 -1.03027,0.107422 -1.3086,0 -2.0752,-0.761719 -0.76172,-0.761718 -0.76172,-2.060547 0,-1.342773 0.72266,-2.128906 0.72754,-0.791015 1.95801,-0.791015 1.10351,0 1.74316,0.71289 0.64453,0.708008 0.64453,1.928711 z m -0.89843,-0.263672 q -0.01,-0.737304 -0.41504,-1.176758 -0.40039,-0.439453 -1.06446,-0.439453 -0.75195,0 -1.20605,0.424805 -0.44922,0.424805 -0.51758,1.196289 l 3.20313,-0.0049 z m -6.81641,-3.798828 0,1.552734 1.85059,0 0,0.698243 -1.85059,0 0,2.96875 q 0,0.668945 0.18066,0.859375 0.18555,0.190429 0.74707,0.190429 l 0.92286,0 0,0.751953 -0.92286,0 q -1.04003,0 -1.43554,-0.385742 -0.39551,-0.390625 -0.39551,-1.416015 l 0,-2.96875 -0.65918,0 0,-0.698243 0.65918,0 0,-1.552734 0.90332,0 z m -4.53613,4.272461 q -1.08887,0 -1.50879,0.249023 -0.41992,0.249024 -0.41992,0.84961 0,0.478515 0.3125,0.761719 0.31738,0.27832 0.85937,0.27832 0.74707,0 1.19629,-0.527344 0.4541,-0.532226 0.4541,-1.411133 l 0,-0.200195 -0.89355,0 z m 1.79199,-0.371094 0,3.120117 -0.89844,0 0,-0.830078 q -0.30762,0.498047 -0.7666,0.737305 -0.45898,0.234375 -1.12305,0.234375 -0.83984,0 -1.33789,-0.46875 -0.49316,-0.473633 -0.49316,-1.264648 0,-0.922852 0.61523,-1.391602 0.62012,-0.46875 1.84571,-0.46875 l 1.25976,0 0,-0.08789 q 0,-0.620117 -0.41015,-0.957031 -0.40528,-0.341797 -1.14258,-0.341797 -0.46875,0 -0.91309,0.112305 -0.44433,0.112305 -0.85449,0.336914 l 0,-0.830078 q 0.49316,-0.19043 0.95703,-0.283203 0.46387,-0.09766 0.90332,-0.09766 1.18652,0 1.77246,0.615234 0.58594,0.615234 0.58594,1.865234 z m -7.31445,-3.901367 0,1.552734 1.85058,0 0,0.698243 -1.85058,0 0,2.96875 q 0,0.668945 0.18066,0.859375 0.18555,0.190429 0.74707,0.190429 l 0.92285,0 0,0.751953 -0.92285,0 q -1.04004,0 -1.43555,-0.385742 -0.3955,-0.390625 -0.3955,-1.416015 l 0,-2.96875 -0.65918,0 0,-0.698243 0.65918,0 0,-1.552734 0.90332,0 z m -2.61719,1.713867 0,0.84961 q -0.38086,-0.195313 -0.79102,-0.292969 -0.41015,-0.09766 -0.84961,-0.09766 -0.66894,0 -1.00586,0.205078 -0.33203,0.205078 -0.33203,0.615234 0,0.3125 0.23926,0.493164 0.23926,0.175781 0.96192,0.336914 l 0.30761,0.06836 q 0.95703,0.205078 1.35742,0.581054 0.40528,0.371094 0.40528,1.040039 0,0.761719 -0.60547,1.206055 -0.60059,0.444336 -1.65527,0.444336 -0.43946,0 -0.91797,-0.08789 -0.47364,-0.08301 -1.00098,-0.253906 l 0,-0.927734 q 0.49805,0.258789 0.98145,0.390625 0.48339,0.126953 0.95703,0.126953 0.63476,0 0.97656,-0.214844 0.3418,-0.219726 0.3418,-0.615234 0,-0.366211 -0.24903,-0.561524 -0.24414,-0.195312 -1.0791,-0.375976 l -0.3125,-0.07324 q -0.83496,-0.175782 -1.20605,-0.53711 -0.3711,-0.366211 -0.3711,-1.000976 0,-0.771485 0.54688,-1.191407 0.54687,-0.419921 1.55273,-0.419921 0.49805,0 0.9375,0.07324 0.43946,0.07324 0.81055,0.219726 z m 117.26074,-24.331054 0,-2.958985 0.89844,0 0,7.597656 -0.89844,0 0,-0.820312 q -0.2832,0.488281 -0.71777,0.727539 -0.42969,0.234375 -1.03516,0.234375 -0.99121,0 -1.61621,-0.791016 -0.62012,-0.791015 -0.62012,-2.080078 0,-1.289062 0.62012,-2.080078 0.625,-0.791015 1.61621,-0.791015 0.60547,0 1.03516,0.239257 0.43457,0.234375 0.71777,0.722657 z m -3.06152,1.909179 q 0,0.991211 0.40527,1.557617 0.41016,0.561524 1.12305,0.561524 0.71289,0 1.12304,-0.561524 0.41016,-0.566406 0.41016,-1.557617 0,-0.991211 -0.41016,-1.552734 -0.41015,-0.566406 -1.12304,-0.566406 -0.71289,0 -1.12305,0.566406 -0.40527,0.561523 -0.40527,1.552734 z m -2.33887,-0.571289 0,3.300781 -0.89844,0 0,-3.271484 q 0,-0.776367 -0.30273,-1.162109 -0.30274,-0.385742 -0.9082,-0.385742 -0.72754,0 -1.14747,0.463867 -0.41992,0.463867 -0.41992,1.264648 l 0,3.09082 -0.90332,0 0,-5.46875 0.90332,0 0,0.84961 q 0.32227,-0.493164 0.75684,-0.737305 0.43945,-0.24414 1.01074,-0.24414 0.94238,0 1.42578,0.585937 0.4834,0.581055 0.4834,1.713867 z m -6.02051,0.341797 0,0.439453 -4.13086,0 q 0.0586,0.927735 0.55664,1.416016 0.50293,0.483398 1.39649,0.483398 0.51758,0 1.00097,-0.126953 0.48829,-0.126953 0.9668,-0.380859 l 0,0.849609 q -0.4834,0.205078 -0.99121,0.3125 -0.50781,0.107422 -1.03027,0.107422 -1.3086,0 -2.0752,-0.761719 -0.76172,-0.761718 -0.76172,-2.060547 0,-1.342773 0.72266,-2.128906 0.72754,-0.791015 1.95801,-0.791015 1.10351,0 1.74316,0.71289 0.64453,0.708008 0.64453,1.928711 z m -0.89843,-0.263672 q -0.01,-0.737304 -0.41504,-1.176758 -0.40039,-0.439453 -1.06446,-0.439453 -0.75195,0 -1.20605,0.424805 -0.44922,0.424805 -0.51758,1.196289 l 3.20313,-0.0049 z m -6.81641,-3.798828 0,1.552734 1.85058,0 0,0.698243 -1.85058,0 0,2.96875 q 0,0.668945 0.18066,0.859375 0.18555,0.190429 0.74707,0.190429 l 0.92285,0 0,0.751953 -0.92285,0 q -1.04004,0 -1.43554,-0.385742 -0.39551,-0.390625 -0.39551,-1.416015 l 0,-2.96875 -0.65918,0 0,-0.698243 0.65918,0 0,-1.552734 0.90332,0 z m -2.26074,1.552734 -1.97754,2.661133 2.08008,2.807617 -1.05957,0 -1.5918,-2.148437 -1.5918,2.148437 -1.05957,0 2.12402,-2.861328 -1.94335,-2.607422 1.05957,0 1.45019,1.948243 1.4502,-1.948243 1.05957,0 z m -5.84473,2.509766 0,0.439453 -4.13086,0 q 0.0586,0.927735 0.55664,1.416016 0.50293,0.483398 1.39649,0.483398 0.51757,0 1.00097,-0.126953 0.48828,-0.126953 0.9668,-0.380859 l 0,0.849609 q -0.4834,0.205078 -0.99121,0.3125 -0.50781,0.107422 -1.03028,0.107422 -1.30859,0 -2.07519,-0.761719 -0.76172,-0.761718 -0.76172,-2.060547 0,-1.342773 0.72266,-2.128906 0.72754,-0.791015 1.958,-0.791015 1.10352,0 1.74317,0.71289 0.64453,0.708008 0.64453,1.928711 z m -0.89844,-0.263672 q -0.01,-0.737304 -0.41504,-1.176758 -0.40039,-0.439453 -1.06445,-0.439453 -0.75195,0 -1.20605,0.424805 -0.44922,0.424805 -0.51758,1.196289 l 3.20312,-0.0049 z m -15.66894,-2.246094 0.89843,0 1.12305,4.267579 1.11817,-4.267579 1.05957,0 1.12304,4.267579 1.11817,-4.267579 0.89843,0 -1.43066,5.46875 -1.05957,0 -1.17676,-4.482421 -1.18164,4.482421 -1.05957,0 -1.43066,-5.46875 z m -0.95215,2.509766 0,0.439453 -4.13086,0 q 0.0586,0.927735 0.55664,1.416016 0.50293,0.483398 1.39648,0.483398 0.51758,0 1.00098,-0.126953 0.48828,-0.126953 0.9668,-0.380859 l 0,0.849609 q -0.4834,0.205078 -0.99121,0.3125 -0.50782,0.107422 -1.03028,0.107422 -1.30859,0 -2.07519,-0.761719 -0.76172,-0.761718 -0.76172,-2.060547 0,-1.342773 0.72266,-2.128906 0.72753,-0.791015 1.958,-0.791015 1.10352,0 1.74317,0.71289 0.64453,0.708008 0.64453,1.928711 z m -0.89844,-0.263672 q -0.01,-0.737304 -0.41504,-1.176758 -0.40039,-0.439453 -1.06445,-0.439453 -0.75195,0 -1.20606,0.424805 -0.44921,0.424805 -0.51757,1.196289 l 3.20312,-0.0049 z m -6.55273,-2.246094 0.89843,0 0,5.46875 -0.89843,0 0,-5.46875 z m 0,-2.128906 0.89843,0 0,1.137696 -0.89843,0 0,-1.137696 z m -4.70215,7.597656 -2.7832,-7.290039 1.03027,0 2.30957,6.137696 2.31445,-6.137696 1.02539,0 -2.77832,7.290039 -1.11816,0 z m -4.95606,-7.021484 0,1.552734 1.85059,0 0,0.698243 -1.85059,0 0,2.96875 q 0,0.668945 0.18067,0.859375 0.18554,0.190429 0.74707,0.190429 l 0.92285,0 0,0.751953 -0.92285,0 q -1.04004,0 -1.43555,-0.385742 -0.39551,-0.390625 -0.39551,-1.416015 l 0,-2.96875 -0.65918,0 0,-0.698243 0.65918,0 0,-1.552734 0.90332,0 z m -2.61718,1.713867 0,0.84961 q -0.38086,-0.195313 -0.79102,-0.292969 -0.41016,-0.09766 -0.84961,-0.09766 -0.66894,0 -1.00586,0.205078 -0.33203,0.205078 -0.33203,0.615234 0,0.3125 0.23926,0.493164 0.23926,0.175781 0.96191,0.336914 l 0.30762,0.06836 q 0.95703,0.205078 1.35742,0.581054 0.40528,0.371094 0.40528,1.040039 0,0.761719 -0.60547,1.206055 -0.60059,0.444336 -1.65528,0.444336 -0.43945,0 -0.91797,-0.08789 -0.47363,-0.08301 -1.00097,-0.253906 l 0,-0.927734 q 0.49804,0.258789 0.98144,0.390625 0.4834,0.126953 0.95703,0.126953 0.63477,0 0.97657,-0.214844 0.34179,-0.219726 0.34179,-0.615234 0,-0.366211 -0.24902,-0.561524 -0.24414,-0.195312 -1.0791,-0.375976 l -0.3125,-0.07324 q -0.83496,-0.175782 -1.20606,-0.53711 -0.37109,-0.366211 -0.37109,-1.000976 0,-0.771485 0.54688,-1.191407 0.54687,-0.419921 1.55273,-0.419921 0.49805,0 0.9375,0.07324 0.43945,0.07324 0.81055,0.219726 z m -6.25977,-0.161133 0.89844,0 0,5.46875 -0.89844,0 0,-5.46875 z m 0,-2.128906 0.89844,0 0,1.137696 -0.89844,0 0,-1.137696 z m -5.52734,0.307617 0.98633,0 0,6.459961 3.5498,0 0,0.830078 -4.53613,0 0,-7.290039 z m -5.52735,2.871094 q 0.33692,-0.605469 0.80567,-0.893555 0.46875,-0.288085 1.10351,-0.288085 0.8545,0 1.31836,0.600585 0.46387,0.595704 0.46387,1.699219 l 0,3.300781 -0.90332,0 0,-3.271484 q 0,-0.786133 -0.27832,-1.166992 -0.27832,-0.380859 -0.84961,-0.380859 -0.69824,0 -1.10352,0.463867 -0.40527,0.463867 -0.40527,1.264648 l 0,3.09082 -0.90332,0 0,-3.271484 q 0,-0.791016 -0.27832,-1.166992 -0.27832,-0.380859 -0.85938,-0.380859 -0.68847,0 -1.09375,0.46875 -0.40527,0.463867 -0.40527,1.259765 l 0,3.09082 -0.90332,0 0,-5.46875 0.90332,0 0,0.84961 q 0.30762,-0.50293 0.73731,-0.742188 0.42968,-0.239257 1.0205,-0.239257 0.59571,0 1.01075,0.302734 0.41992,0.302734 0.62011,0.878906 z m -5.73242,1.459961 0,0.439453 -4.13086,0 q 0.0586,0.927735 0.55664,1.416016 0.50293,0.483398 1.39649,0.483398 0.51758,0 1.00097,-0.126953 0.48828,-0.126953 0.9668,-0.380859 l 0,0.849609 q -0.4834,0.205078 -0.99121,0.3125 -0.50781,0.107422 -1.03027,0.107422 -1.3086,0 -2.0752,-0.761719 -0.76172,-0.761718 -0.76172,-2.060547 0,-1.342773 0.72266,-2.128906 0.72754,-0.791015 1.95801,-0.791015 1.10351,0 1.74316,0.71289 0.64453,0.708008 0.64453,1.928711 z m -0.89844,-0.263672 q -0.01,-0.737304 -0.41504,-1.176758 -0.40039,-0.439453 -1.06445,-0.439453 -0.75195,0 -1.20605,0.424805 -0.44922,0.424805 -0.51758,1.196289 l 3.20312,-0.0049 z m -6.8164,-3.798828 0,1.552734 1.85058,0 0,0.698243 -1.85058,0 0,2.96875 q 0,0.668945 0.18066,0.859375 0.18555,0.190429 0.74707,0.190429 l 0.92285,0 0,0.751953 -0.92285,0 q -1.04004,0 -1.43554,-0.385742 -0.39551,-0.390625 -0.39551,-1.416015 l 0,-2.96875 -0.65918,0 0,-0.698243 0.65918,0 0,-1.552734 0.90332,0 z m -3.79883,-0.268555 0.98633,0 0,7.290039 -0.98633,0 0,-7.290039 z m -4.95117,1.982422 0,0.84961 q -0.38086,-0.195313 -0.79102,-0.292969 -0.41015,-0.09766 -0.84961,-0.09766 -0.66894,0 -1.00586,0.205078 -0.33203,0.205078 -0.33203,0.615234 0,0.3125 0.23926,0.493164 0.23926,0.175781 0.96191,0.336914 l 0.30762,0.06836 q 0.95703,0.205078 1.35742,0.581054 0.40528,0.371094 0.40528,1.040039 0,0.761719 -0.60547,1.206055 -0.60059,0.444336 -1.65528,0.444336 -0.43945,0 -0.91796,-0.08789 -0.47364,-0.08301 -1.00098,-0.253906 l 0,-0.927734 q 0.49805,0.258789 0.98144,0.390625 0.4834,0.126953 0.95704,0.126953 0.63476,0 0.97656,-0.214844 0.34179,-0.219726 0.34179,-0.615234 0,-0.366211 -0.24902,-0.561524 -0.24414,-0.195312 -1.0791,-0.375976 l -0.3125,-0.07324 q -0.83496,-0.175782 -1.20605,-0.53711 -0.3711,-0.366211 -0.3711,-1.000976 0,-0.771485 0.54688,-1.191407 0.54687,-0.419921 1.55273,-0.419921 0.49805,0 0.9375,0.07324 0.43945,0.07324 0.81055,0.219726 z m -5.21485,0 0,0.84961 q -0.38086,-0.195313 -0.79101,-0.292969 -0.41016,-0.09766 -0.84961,-0.09766 -0.66895,0 -1.00586,0.205078 -0.33203,0.205078 -0.33203,0.615234 0,0.3125 0.23926,0.493164 0.23925,0.175781 0.96191,0.336914 l 0.30762,0.06836 q 0.95703,0.205078 1.35742,0.581054 0.40527,0.371094 0.40527,1.040039 0,0.761719 -0.60547,1.206055 -0.60058,0.444336 -1.65527,0.444336 -0.43945,0 -0.91797,-0.08789 -0.47363,-0.08301 -1.00097,-0.253906 l 0,-0.927734 q 0.49804,0.258789 0.98144,0.390625 0.4834,0.126953 0.95703,0.126953 0.63477,0 0.97656,-0.214844 0.3418,-0.219726 0.3418,-0.615234 0,-0.366211 -0.24902,-0.561524 -0.24414,-0.195312 -1.0791,-0.375976 l -0.3125,-0.07324 q -0.83496,-0.175782 -1.20606,-0.53711 -0.37109,-0.366211 -0.37109,-1.000976 0,-0.771485 0.54687,-1.191407 0.54688,-0.419921 1.55274,-0.419921 0.49804,0 0.9375,0.07324 0.43945,0.07324 0.81054,0.219726 z m -7.13379,2.558594 q -1.08886,0 -1.50878,0.249023 -0.41993,0.249024 -0.41993,0.84961 0,0.478515 0.3125,0.761719 0.31739,0.27832 0.85938,0.27832 0.74707,0 1.19629,-0.527344 0.4541,-0.532226 0.4541,-1.411133 l 0,-0.200195 -0.89356,0 z m 1.792,-0.371094 0,3.120117 -0.89844,0 0,-0.830078 q -0.30762,0.498047 -0.7666,0.737305 -0.45899,0.234375 -1.12305,0.234375 -0.83984,0 -1.33789,-0.46875 -0.49316,-0.473633 -0.49316,-1.264648 0,-0.922852 0.61523,-1.391602 0.62012,-0.46875 1.8457,-0.46875 l 1.25977,0 0,-0.08789 q 0,-0.620117 -0.41016,-0.957031 -0.40527,-0.341797 -1.14257,-0.341797 -0.46875,0 -0.91309,0.112305 -0.44434,0.112305 -0.85449,0.336914 l 0,-0.830078 q 0.49316,-0.19043 0.95703,-0.283203 0.46387,-0.09766 0.90332,-0.09766 1.18652,0 1.77246,0.615234 0.58594,0.615234 0.58594,1.865234 z m -7.05078,-4.477539 0.89843,0 0,7.597656 -0.89843,0 0,-7.597656 z m -1.57227,2.338867 0,0.839844 q -0.38086,-0.209961 -0.7666,-0.3125 -0.38086,-0.107422 -0.77149,-0.107422 -0.87402,0 -1.35742,0.556641 -0.4834,0.551758 -0.4834,1.552734 0,1.000977 0.4834,1.557617 0.4834,0.551758 1.35742,0.551758 0.39063,0 0.77149,-0.102539 0.38574,-0.107422 0.7666,-0.317383 l 0,0.830079 q -0.37598,0.175781 -0.78125,0.263671 -0.40039,0.08789 -0.85449,0.08789 -1.23535,0 -1.96289,-0.776367 -0.72754,-0.776367 -0.72754,-2.094727 0,-1.33789 0.73242,-2.104492 0.7373,-0.766601 2.0166,-0.766601 0.41504,0 0.81055,0.08789 0.39551,0.08301 0.7666,0.253906 z m 123.07129,-22.88085895 2.63184,0 0,0.80078125 -2.63184,0 0,-0.80078125 z m -2.58301,-3.88183595 0,1.5527344 1.85059,0 0,0.6982422 -1.85059,0 0,2.96874997 q 0,0.66894533 0.18067,0.85937503 0.18554,0.1904297 0.74707,0.1904297 l 0.92285,0 0,0.7519531 -0.92285,0 q -1.04004,0 -1.43555,-0.3857422 -0.39551,-0.390625 -0.39551,-1.41601563 l 0,-2.96874997 -0.65918,0 0,-0.6982422 0.65918,0 0,-1.5527344 0.90332,0 z m -2.46094,1.7626953 0,0.8398438 q -0.38086,-0.209961 -0.7666,-0.3125 -0.38086,-0.1074219 -0.77148,-0.1074219 -0.87403,0 -1.35742,0.5566406 -0.4834,0.5517578 -0.4834,1.5527344 0,1.00097656 0.4834,1.5576172 0.48339,0.5517578 1.35742,0.5517578 0.39062,0 0.77148,-0.1025391 0.38574,-0.1074218 0.7666,-0.3173828 l 0,0.8300781 q -0.37597,0.1757813 -0.78125,0.2636719 -0.40039,0.087891 -0.85449,0.087891 -1.23535,0 -1.96289,-0.7763671 -0.72754,-0.7763672 -0.72754,-2.0947266 0,-1.3378906 0.73242,-2.1044922 0.73731,-0.7666016 2.01661,-0.7666016 0.41503,0 0.81054,0.087891 0.39551,0.083008 0.7666,0.2539062 z m -7.583,2.50976565 q -1.08887,0 -1.50879,0.24902344 -0.41992,0.24902343 -0.41992,0.84960941 0,0.4785156 0.3125,0.7617187 0.31738,0.2783203 0.85937,0.2783203 0.74707,0 1.19629,-0.5273437 0.4541,-0.53222659 0.4541,-1.41113284 l 0,-0.20019531 -0.89355,0 z m 1.79199,-0.37109375 0,3.1201172 -0.89844,0 0,-0.8300781 q -0.30762,0.4980468 -0.7666,0.7373046 -0.45899,0.234375 -1.12305,0.234375 -0.83984,0 -1.33789,-0.46875 -0.49316,-0.4736328 -0.49316,-1.2646484 0,-0.92285155 0.61523,-1.39160155 0.62012,-0.46875 1.84571,-0.46875 l 1.25976,0 0,-0.0878906 q 0,-0.62011725 -0.41016,-0.95703125 -0.40527,-0.3417969 -1.14257,-0.3417969 -0.46875,0 -0.91309,0.1123047 -0.44434,0.1123047 -0.85449,0.336914 l 0,-0.8300781 q 0.49316,-0.1904297 0.95703,-0.2832031 0.46387,-0.097656 0.90332,-0.097656 1.18652,0 1.77246,0.6152344 0.58594,0.6152344 0.58594,1.86523443 z m -5.75195,0.16113281 0,0.43945313 -4.13086,0 q 0.0586,0.92773436 0.55664,1.41601566 0.50293,0.4833984 1.39648,0.4833984 0.51758,0 1.00098,-0.1269531 0.48828,-0.1269532 0.96679,-0.3808594 l 0,0.8496094 q -0.48339,0.2050781 -0.99121,0.3125 -0.50781,0.1074218 -1.03027,0.1074218 -1.30859,0 -2.0752,-0.7617187 -0.76171,-0.7617188 -0.76171,-2.06054688 0,-1.34277342 0.72265,-2.12890622 0.72754,-0.7910157 1.95801,-0.7910157 1.10352,0 1.74316,0.7128907 0.64454,0.7080078 0.64454,1.92871091 z m -0.89844,-0.26367187 q -0.01,-0.73730474 -0.41504,-1.17675784 -0.40039,-0.4394531 -1.06445,-0.4394531 -0.75196,0 -1.20606,0.4248047 -0.44922,0.4248047 -0.51758,1.19628905 l 3.20313,-0.004883 z m -4.5166,-1.40625004 q -0.15137,-0.087891 -0.33204,-0.1269531 -0.17578,-0.043945 -0.39062,-0.043945 -0.76172,0 -1.17188,0.4980469 -0.40527,0.493164 -0.40527,1.42089841 l 0,2.88085939 -0.90332,0 0,-5.46875 0.90332,0 0,0.8496094 q 0.2832,-0.4980469 0.73731,-0.7373047 0.4541,-0.2441407 1.10351,-0.2441407 0.0928,0 0.20508,0.014649 0.1123,0.00977 0.24902,0.03418 l 0.005,0.9228515 z m -5.07325,-2.6611328 0,2.709961 -0.83007,0 0,-2.709961 0.83007,0 z m -9.52148,2.8710938 q 0.33691,-0.6054688 0.80566,-0.8935547 0.46875,-0.288086 1.10352,-0.288086 0.85449,0 1.31836,0.600586 0.46387,0.5957031 0.46387,1.69921874 l 0,3.30078126 -0.90332,0 0,-3.27148439 q 0,-0.78613281 -0.27832,-1.16699221 -0.27833,-0.3808594 -0.84961,-0.3808594 -0.69825,0 -1.10352,0.4638672 -0.40527,0.4638672 -0.40527,1.26464847 l 0,3.09082033 -0.90332,0 0,-3.27148439 q 0,-0.79101561 -0.27832,-1.16699221 -0.27832,-0.3808594 -0.85938,-0.3808594 -0.68848,0 -1.09375,0.46875 -0.40527,0.4638672 -0.40527,1.25976567 l 0,3.09082033 -0.90332,0 0,-5.46875 0.90332,0 0,0.8496094 q 0.30761,-0.5029297 0.7373,-0.7421875 0.42969,-0.2392579 1.02051,-0.2392579 0.5957,0 1.01074,0.3027344 0.41992,0.3027344 0.62012,0.8789063 z m -8.25195,-0.4199219 q -0.72266,0 -1.14258,0.5664062 -0.41992,0.5615235 -0.41992,1.5429688 0,0.98144531 0.41504,1.5478516 0.41992,0.5615234 1.14746,0.5615234 0.71777,0 1.13769,-0.5664063 0.41992,-0.5664062 0.41992,-1.5429687 0,-0.9716797 -0.41992,-1.5380859 -0.41992,-0.5712891 -1.13769,-0.5712891 z m 0,-0.7617188 q 1.17187,0 1.84082,0.7617188 0.66894,0.7617187 0.66894,2.109375 0,1.3427734 -0.66894,2.109375 -0.66895,0.7617187 -1.84082,0.7617187 -1.17676,0 -1.84571,-0.7617187 -0.66406,-0.7666016 -0.66406,-2.109375 0,-1.3476563 0.66406,-2.109375 0.66895,-0.7617188 1.84571,-0.7617188 z m -2.85645,0.9716797 q -0.15137,-0.087891 -0.33203,-0.1269531 -0.17578,-0.043945 -0.39063,-0.043945 -0.76171,0 -1.17187,0.4980469 -0.40527,0.493164 -0.40527,1.42089841 l 0,2.88085939 -0.90332,0 0,-5.46875 0.90332,0 0,0.8496094 q 0.2832,-0.4980469 0.7373,-0.7373047 0.4541,-0.2441407 1.10352,-0.2441407 0.0928,0 0.20507,0.014649 0.11231,0.00977 0.24903,0.03418 l 0.005,0.9228515 z m -3.91601,-2.96875 0,0.7470703 -0.85938,0 q -0.4834,0 -0.67383,0.1953125 -0.18554,0.1953125 -0.18554,0.703125 l 0,0.4833985 1.47949,0 0,0.6982422 -1.47949,0 0,4.7705078 -0.90332,0 0,-4.7705078 -0.85938,0 0,-0.6982422 0.85938,0 0,-0.3808594 q 0,-0.9130859 0.4248,-1.328125 0.4248,-0.4199219 1.34766,-0.4199219 l 0.84961,0 z m -12.01172,8.5253907 0.34179,0 q 0.6836,0 0.88868,-0.209961 0.20996,-0.2099609 0.20996,-0.9082031 l 0,-1.2109375 q 0,-0.76171875 0.21972,-1.10839844 0.21973,-0.34667969 0.76172,-0.47851562 -0.54199,-0.12207032 -0.76172,-0.46875 -0.21972,-0.34667974 -0.21972,-1.11328124 l 0,-1.2109375 q 0,-0.6933594 -0.20996,-0.9033203 -0.20508,-0.2148438 -0.88868,-0.2148438 l -0.34179,0 0,-0.6982422 0.30761,0 q 1.21582,0 1.6211,0.3613282 0.41015,0.3564453 0.41015,1.4355468 l 0,1.171875 q 0,0.7275391 0.26368,1.01074222 0.26367,0.27832032 0.95703,0.27832032 l 0.30273,0 0,0.69824218 -0.30273,0 q -0.69336,0 -0.95703,0.28320313 -0.26368,0.28320312 -0.26368,1.02050785 l 0,1.1669921 q 0,1.0791016 -0.41015,1.4404297 -0.40528,0.3613282 -1.6211,0.3613282 l -0.30761,0 0,-0.703125 z m -6.14258,-8.5253907 0.90332,0 0,4.48730472 2.68066,-2.35839842 1.14746,0 -2.90039,2.55859374 3.02246,2.91015626 -1.17187,0 -2.77832,-2.67089845 0,2.67089845 -0.90332,0 0,-7.5976563 z m -1.76758,4.29687504 0,3.30078126 -0.89844,0 0,-3.27148439 q 0,-0.77636721 -0.30273,-1.16210941 -0.30274,-0.3857422 -0.9082,-0.3857422 -0.72754,0 -1.14747,0.4638672 -0.41992,0.4638672 -0.41992,1.26464847 l 0,3.09082033 -0.90332,0 0,-5.46875 0.90332,0 0,0.8496094 q 0.32227,-0.4931641 0.75684,-0.7373047 0.43945,-0.2441407 1.01074,-0.2441407 0.94238,0 1.42578,0.5859375 0.4834,0.5810547 0.4834,1.71386724 z m -7.31934,-2.16796874 0.89844,0 0,5.46875 -0.89844,0 0,-5.46875 z m 0,-2.1289063 0.89844,0 0,1.1376953 -0.89844,0 0,-1.1376953 z m -5.52734,0.3076172 0.98633,0 0,6.459961 3.5498,0 0,0.8300781 -4.53613,0 0,-7.2900391 z m -2.23633,8.2177735 0,0.703125 -0.30273,0 q -1.21582,0 -1.63086,-0.3613282 -0.41016,-0.3613281 -0.41016,-1.4404297 l 0,-1.1669921 q 0,-0.73730473 -0.26367,-1.02050785 -0.26367,-0.28320313 -0.95703,-0.28320313 l -0.29785,0 0,-0.69824218 0.29785,0 q 0.69824,0 0.95703,-0.27832032 0.26367,-0.28320312 0.26367,-1.01074222 l 0,-1.171875 q 0,-1.0791015 0.41016,-1.4355468 0.41504,-0.3613282 1.63086,-0.3613282 l 0.30273,0 0,0.6982422 -0.33203,0 q -0.68848,0 -0.89844,0.2148438 -0.20996,0.2148437 -0.20996,0.9033203 l 0,1.2109375 q 0,0.7666015 -0.22461,1.11328124 -0.21972,0.34667968 -0.75683,0.46875 0.54199,0.13183593 0.76172,0.47851562 0.21972,0.34667969 0.21972,1.10839844 l 0,1.2109375 q 0,0.6884766 0.20996,0.9033203 0.20996,0.2148438 0.89844,0.2148438 l 0.33203,0 z m -10.39062,-7.9492188 0,1.5527344 1.85058,0 0,0.6982422 -1.85058,0 0,2.96874997 q 0,0.66894533 0.18066,0.85937503 0.18555,0.1904297 0.74707,0.1904297 l 0.92285,0 0,0.7519531 -0.92285,0 q -1.04004,0 -1.43554,-0.3857422 -0.39551,-0.390625 -0.39551,-1.41601563 l 0,-2.96874997 -0.65918,0 0,-0.6982422 0.65918,0 0,-1.5527344 0.90332,0 z m -1.84082,2.3925781 q -0.15137,-0.087891 -0.33203,-0.1269531 -0.17579,-0.043945 -0.39063,-0.043945 -0.76172,0 -1.17187,0.4980469 -0.40528,0.493164 -0.40528,1.42089841 l 0,2.88085939 -0.90332,0 0,-5.46875 0.90332,0 0,0.8496094 q 0.28321,-0.4980469 0.73731,-0.7373047 0.4541,-0.2441407 1.10351,-0.2441407 0.0928,0 0.20508,0.014649 0.11231,0.00977 0.24902,0.03418 l 0.005,0.9228515 z m -7.16309,-0.2099609 q -0.72265,0 -1.14258,0.5664062 -0.41992,0.5615235 -0.41992,1.5429688 0,0.98144531 0.41504,1.5478516 0.41992,0.5615234 1.14746,0.5615234 0.71777,0 1.1377,-0.5664063 0.41992,-0.5664062 0.41992,-1.5429687 0,-0.9716797 -0.41992,-1.5380859 -0.41993,-0.5712891 -1.1377,-0.5712891 z m 0,-0.7617188 q 1.17188,0 1.84082,0.7617188 0.66895,0.7617187 0.66895,2.109375 0,1.3427734 -0.66895,2.109375 -0.66894,0.7617187 -1.84082,0.7617187 -1.17676,0 -1.8457,-0.7617187 -0.66406,-0.7666016 -0.66406,-2.109375 0,-1.3476563 0.66406,-2.109375 0.66894,-0.7617188 1.8457,-0.7617188 z m -7.59765,4.7802735 0,2.9003906 -0.90333,0 0,-7.5488281 0.90333,0 0,0.8300781 q 0.2832,-0.4882812 0.71289,-0.7226562 0.43457,-0.2392579 1.03515,-0.2392579 0.9961,0 1.61621,0.7910157 0.625,0.7910156 0.625,2.0800781 0,1.2890625 -0.625,2.0800781 -0.62011,0.7910156 -1.61621,0.7910156 -0.60058,0 -1.03515,-0.234375 -0.42969,-0.2392578 -0.71289,-0.727539 z m 3.05664,-1.9091797 q 0,-0.9912109 -0.41016,-1.5527344 -0.40527,-0.5664062 -1.11816,-0.5664062 -0.7129,0 -1.12305,0.5664062 -0.40527,0.5615235 -0.40527,1.5527344 0,0.99121094 0.40527,1.5576172 0.41015,0.5615234 1.12305,0.5615234 0.71289,0 1.11816,-0.5615234 0.41016,-0.56640626 0.41016,-1.5576172 z m -9.41407,-1.6894531 q 0.33692,-0.6054688 0.80567,-0.8935547 0.46875,-0.288086 1.10351,-0.288086 0.8545,0 1.31836,0.600586 0.46387,0.5957031 0.46387,1.69921874 l 0,3.30078126 -0.90332,0 0,-3.27148439 q 0,-0.78613281 -0.27832,-1.16699221 -0.27832,-0.3808594 -0.84961,-0.3808594 -0.69824,0 -1.10352,0.4638672 -0.40527,0.4638672 -0.40527,1.26464847 l 0,3.09082033 -0.90332,0 0,-3.27148439 q 0,-0.79101561 -0.27832,-1.16699221 -0.27832,-0.3808594 -0.85938,-0.3808594 -0.68847,0 -1.09375,0.46875 -0.40527,0.4638672 -0.40527,1.25976567 l 0,3.09082033 -0.90332,0 0,-5.46875 0.90332,0 0,0.8496094 q 0.30762,-0.5029297 0.73731,-0.7421875 0.42968,-0.2392579 1.0205,-0.2392579 0.59571,0 1.01075,0.3027344 0.41992,0.3027344 0.62011,0.8789063 z m -7.03125,-1.0498047 0.89844,0 0,5.46875 -0.89844,0 0,-5.46875 z m 0,-2.1289063 0.89844,0 0,1.1376953 -0.89844,0 0,-1.1376953 z m 129.52637,-8.2031252 0,3.3007815 -0.89844,0 0,-3.2714845 q 0,-0.776367 -0.30273,-1.162109 -0.30274,-0.385742 -0.9082,-0.385742 -0.72754,0 -1.14747,0.463867 -0.41992,0.463867 -0.41992,1.264648 l 0,3.0908205 -0.90332,0 0,-5.4687505 0.90332,0 0,0.84961 q 0.32227,-0.493164 0.75684,-0.737305 0.43945,-0.24414 1.01074,-0.24414 0.94238,0 1.42578,0.585937 0.4834,0.581055 0.4834,1.713867 z m -6.02051,0.341797 0,0.439453 -4.13086,0 q 0.0586,0.927735 0.55664,1.416016 0.50293,0.483398 1.39649,0.483398 0.51758,0 1.00097,-0.126953 0.48829,-0.126953 0.9668,-0.380859 l 0,0.849609 q -0.4834,0.2050783 -0.99121,0.3125002 -0.50781,0.1074218 -1.03027,0.1074218 -1.3086,0 -2.0752,-0.761719 -0.76172,-0.761718 -0.76172,-2.060547 0,-1.342773 0.72266,-2.128906 0.72754,-0.791015 1.95801,-0.791015 1.10351,0 1.74316,0.71289 0.64453,0.708008 0.64453,1.928711 z m -0.89843,-0.263672 q -0.01,-0.737304 -0.41504,-1.176758 -0.40039,-0.439453 -1.06446,-0.439453 -0.75195,0 -1.20605,0.424805 -0.44922,0.424805 -0.51758,1.196289 l 3.20313,-0.0049 z m -5.58106,-0.07813 0,3.3007815 -0.89844,0 0,-3.2714845 q 0,-0.776367 -0.30273,-1.162109 -0.30274,-0.385742 -0.9082,-0.385742 -0.72754,0 -1.14747,0.463867 -0.41992,0.463867 -0.41992,1.264648 l 0,3.0908205 -0.90332,0 0,-5.4687505 0.90332,0 0,0.84961 q 0.32227,-0.493164 0.75684,-0.737305 0.43945,-0.24414 1.01074,-0.24414 0.94238,0 1.42578,0.585937 0.4834,0.581055 0.4834,1.713867 z m -8.54004,-1.538086 q -0.72265,0 -1.14258,0.566407 -0.41992,0.561523 -0.41992,1.542968 0,0.981446 0.41504,1.547852 0.41992,0.561523 1.14746,0.561523 0.71777,0 1.1377,-0.566406 0.41992,-0.566406 0.41992,-1.542969 0,-0.971679 -0.41992,-1.538086 -0.41993,-0.571289 -1.1377,-0.571289 z m 0,-0.761718 q 1.17188,0 1.84082,0.761718 0.66895,0.761719 0.66895,2.109375 0,1.342774 -0.66895,2.109375 -0.66894,0.761719 -1.84082,0.761719 -1.17676,0 -1.8457,-0.761719 -0.66406,-0.766601 -0.66406,-2.109375 0,-1.347656 0.66406,-2.109375 0.66894,-0.761718 1.8457,-0.761718 z m -7.59765,4.780273 0,2.9003906 -0.90333,0 0,-7.5488286 0.90333,0 0,0.830079 q 0.2832,-0.488282 0.71289,-0.722657 0.43457,-0.239257 1.03515,-0.239257 0.9961,0 1.61621,0.791015 0.625,0.791016 0.625,2.080078 0,1.289063 -0.625,2.080078 -0.62011,0.791016 -1.61621,0.791016 -0.60058,0 -1.03515,-0.234375 -0.42969,-0.239258 -0.71289,-0.727539 z m 3.05664,-1.90918 q 0,-0.991211 -0.41016,-1.552734 -0.40527,-0.566406 -1.11816,-0.566406 -0.7129,0 -1.12305,0.566406 -0.40527,0.561523 -0.40527,1.552734 0,0.991211 0.40527,1.557617 0.41015,0.561524 1.12305,0.561524 0.71289,0 1.11816,-0.561524 0.41016,-0.566406 0.41016,-1.557617 z m -9.41407,-1.689453 q 0.33692,-0.605469 0.80567,-0.893555 0.46875,-0.288085 1.10351,-0.288085 0.8545,0 1.31836,0.600585 0.46387,0.595704 0.46387,1.699219 l 0,3.3007815 -0.90332,0 0,-3.2714845 q 0,-0.786133 -0.27832,-1.166992 -0.27832,-0.380859 -0.84961,-0.380859 -0.69824,0 -1.10352,0.463867 -0.40527,0.463867 -0.40527,1.264648 l 0,3.0908205 -0.90332,0 0,-3.2714845 q 0,-0.791016 -0.27832,-1.166992 -0.27832,-0.380859 -0.85938,-0.380859 -0.68847,0 -1.09375,0.46875 -0.40527,0.463867 -0.40527,1.259765 l 0,3.0908205 -0.90332,0 0,-5.4687505 0.90332,0 0,0.84961 q 0.30762,-0.50293 0.73731,-0.742188 0.42968,-0.239257 1.0205,-0.239257 0.59571,0 1.01075,0.302734 0.41992,0.302734 0.62011,0.878906 z m -8.25195,-0.419922 q -0.72266,0 -1.14258,0.566407 -0.41992,0.561523 -0.41992,1.542968 0,0.981446 0.41504,1.547852 0.41992,0.561523 1.14746,0.561523 0.71777,0 1.1377,-0.566406 0.41992,-0.566406 0.41992,-1.542969 0,-0.971679 -0.41992,-1.538086 -0.41993,-0.571289 -1.1377,-0.571289 z m 0,-0.761718 q 1.17188,0 1.84082,0.761718 0.66895,0.761719 0.66895,2.109375 0,1.342774 -0.66895,2.109375 -0.66894,0.761719 -1.84082,0.761719 -1.17676,0 -1.8457,-0.761719 -0.66407,-0.766601 -0.66407,-2.109375 0,-1.347656 0.66407,-2.109375 0.66894,-0.761718 1.8457,-0.761718 z m -3.61328,-1.12793 0,1.040039 q -0.49805,-0.463867 -1.06445,-0.693359 -0.56153,-0.229493 -1.19629,-0.229493 -1.25,0 -1.91407,0.766602 -0.66406,0.761719 -0.66406,2.207031 0,1.44043 0.66406,2.207031 0.66407,0.761719 1.91407,0.761719 0.63476,0 1.19629,-0.229492 0.5664,-0.229492 1.06445,-0.693359 l 0,1.030273 q -0.51758,0.351563 -1.09863,0.5273438 -0.57618,0.1757812 -1.22071,0.1757812 -1.65527,0 -2.60742,-1.010742 -0.95215,-1.015625 -0.95215,-2.768555 0,-1.757812 0.95215,-2.768555 0.95215,-1.015625 2.60742,-1.015625 0.6543,0 1.23047,0.175782 0.58106,0.170898 1.08887,0.517578 z m -7.69531,7.6562499 0,0.703125 -0.30274,0 q -1.21582,0 -1.63086,-0.3613282 -0.41015,-0.3613281 -0.41015,-1.4404297 l 0,-1.166992 q 0,-0.737305 -0.26368,-1.020508 -0.26367,-0.283203 -0.95703,-0.283203 l -0.29785,0 0,-0.698242 0.29785,0 q 0.69825,0 0.95703,-0.278321 0.26368,-0.283203 0.26368,-1.010742 l 0,-1.171875 q 0,-1.079101 0.41015,-1.435547 0.41504,-0.361328 1.63086,-0.361328 l 0.30274,0 0,0.698242 -0.33203,0 q -0.68848,0 -0.89844,0.214844 -0.20996,0.214844 -0.20996,0.90332 l 0,1.210938 q 0,0.766602 -0.22461,1.113281 -0.21973,0.34668 -0.75684,0.46875 0.54199,0.131836 0.76172,0.478516 0.21973,0.34668 0.21973,1.108398 l 0,1.210938 q 0,0.6884764 0.20996,0.9033201 0.20996,0.2148438 0.89844,0.2148438 l 0.33203,0 z m -10.30762,-2.1679689 1.03027,0 0,0.839844 -0.80078,1.5624999 -0.62988,0 0.40039,-1.5624999 0,-0.839844 z m -3.2666,-5.78125 0,1.552734 1.85058,0 0,0.698243 -1.85058,0 0,2.96875 q 0,0.668945 0.18066,0.859375 0.18555,0.190429 0.74707,0.190429 l 0.92285,0 0,0.7519535 -0.92285,0 q -1.04004,0 -1.43554,-0.3857425 -0.39551,-0.390625 -0.39551,-1.416015 l 0,-2.96875 -0.65918,0 0,-0.698243 0.65918,0 0,-1.552734 0.90332,0 z m -2.46094,1.762695 0,0.839844 q -0.38086,-0.209961 -0.7666,-0.3125 -0.38086,-0.107422 -0.77149,-0.107422 -0.87402,0 -1.35742,0.556641 -0.4834,0.551758 -0.4834,1.552734 0,1.000977 0.4834,1.557617 0.4834,0.551758 1.35742,0.551758 0.39063,0 0.77149,-0.102539 0.38574,-0.107422 0.7666,-0.317383 l 0,0.830079 q -0.37598,0.1757808 -0.78125,0.2636714 -0.40039,0.087891 -0.85449,0.087891 -1.23535,0 -1.96289,-0.7763674 -0.72754,-0.776367 -0.72754,-2.094727 0,-1.33789 0.73242,-2.104492 0.7373,-0.766601 2.0166,-0.766601 0.41504,0 0.81055,0.08789 0.39551,0.08301 0.7666,0.253906 z m -7.58301,2.509766 q -1.08886,0 -1.50879,0.249023 -0.41992,0.249024 -0.41992,0.84961 0,0.478515 0.3125,0.761719 0.31738,0.27832 0.85938,0.27832 0.74707,0 1.19629,-0.527344 0.4541,-0.532226 0.4541,-1.411133 l 0,-0.200195 -0.89356,0 z m 1.79199,-0.371094 0,3.1201175 -0.89843,0 0,-0.8300785 q -0.30762,0.498047 -0.7666,0.737305 -0.45899,0.234375 -1.12305,0.234375 -0.83985,0 -1.33789,-0.46875 -0.49317,-0.473633 -0.49317,-1.264648 0,-0.922852 0.61524,-1.391602 0.62012,-0.46875 1.8457,-0.46875 l 1.25977,0 0,-0.08789 q 0,-0.620117 -0.41016,-0.957031 -0.40527,-0.341797 -1.14258,-0.341797 -0.46875,0 -0.91308,0.112305 -0.44434,0.112305 -0.8545,0.336914 l 0,-0.830078 q 0.49317,-0.19043 0.95704,-0.283203 0.46386,-0.09766 0.90332,-0.09766 1.18652,0 1.77246,0.615234 0.58593,0.615234 0.58593,1.865234 z m -5.75195,0.161133 0,0.439453 -4.13086,0 q 0.0586,0.927735 0.55664,1.416016 0.50293,0.483398 1.39649,0.483398 0.51758,0 1.00097,-0.126953 0.48828,-0.126953 0.9668,-0.380859 l 0,0.849609 q -0.4834,0.2050783 -0.99121,0.3125002 -0.50781,0.1074218 -1.03027,0.1074218 -1.3086,0 -2.0752,-0.761719 -0.76172,-0.761718 -0.76172,-2.060547 0,-1.342773 0.72266,-2.128906 0.72754,-0.791015 1.95801,-0.791015 1.10351,0 1.74316,0.71289 0.64453,0.708008 0.64453,1.928711 z m -0.89844,-0.263672 q -0.01,-0.737304 -0.41504,-1.176758 -0.40039,-0.439453 -1.06445,-0.439453 -0.75195,0 -1.20605,0.424805 -0.44922,0.424805 -0.51758,1.196289 l 3.20312,-0.0049 z m -6.78711,-0.195312 q 0.31739,0.107422 0.61524,0.458984 0.30273,0.351563 0.60547,0.966797 l 1.00097,1.9921875 -1.05957,0 -0.93261,-1.8701175 q -0.36133,-0.732422 -0.70313,-0.971679 -0.33691,-0.239258 -0.92285,-0.239258 l -1.07422,0 0,3.0810545 -0.98633,0 0,-7.2900395 2.22657,0 q 1.25,0 1.86523,0.522461 0.61523,0.522461 0.61523,1.577149 0,0.688476 -0.32226,1.142578 -0.31738,0.454101 -0.92774,0.629883 z m -2.4707,-3.061524 0,2.587891 1.24024,0 q 0.71289,0 1.07421,-0.327149 0.36622,-0.332031 0.36622,-0.971679 0,-0.639649 -0.36622,-0.961914 -0.36132,-0.327149 -1.07421,-0.327149 l -1.24024,0 z m -7.24609,-0.541992 0,1.552734 1.85058,0 0,0.698243 -1.85058,0 0,2.96875 q 0,0.668945 0.18066,0.859375 0.18555,0.190429 0.74707,0.190429 l 0.92285,0 0,0.7519535 -0.92285,0 q -1.04004,0 -1.43554,-0.3857425 -0.39551,-0.390625 -0.39551,-1.416015 l 0,-2.96875 -0.65918,0 0,-0.698243 0.65918,0 0,-1.552734 0.90332,0 z m -1.84082,2.392578 q -0.15137,-0.08789 -0.33203,-0.126953 -0.17579,-0.04394 -0.39063,-0.04394 -0.76172,0 -1.17187,0.498047 -0.40528,0.493164 -0.40528,1.420898 l 0,2.8808595 -0.90332,0 0,-5.4687505 0.90332,0 0,0.84961 q 0.28321,-0.498047 0.73731,-0.737305 0.4541,-0.24414 1.10351,-0.24414 0.0928,0 0.20508,0.01465 0.11231,0.0098 0.24902,0.03418 l 0.005,0.922851 z m -7.16309,-0.209961 q -0.72265,0 -1.14258,0.566407 -0.41992,0.561523 -0.41992,1.542968 0,0.981446 0.41504,1.547852 0.41992,0.561523 1.14746,0.561523 0.71777,0 1.1377,-0.566406 0.41992,-0.566406 0.41992,-1.542969 0,-0.971679 -0.41992,-1.538086 -0.41993,-0.571289 -1.1377,-0.571289 z m 0,-0.761718 q 1.17188,0 1.84082,0.761718 0.66895,0.761719 0.66895,2.109375 0,1.342774 -0.66895,2.109375 -0.66894,0.761719 -1.84082,0.761719 -1.17676,0 -1.8457,-0.761719 -0.66406,-0.766601 -0.66406,-2.109375 0,-1.347656 0.66406,-2.109375 0.66894,-0.761718 1.8457,-0.761718 z m -7.59765,4.780273 0,2.9003906 -0.90333,0 0,-7.5488286 0.90333,0 0,0.830079 q 0.2832,-0.488282 0.71289,-0.722657 0.43457,-0.239257 1.03515,-0.239257 0.9961,0 1.61621,0.791015 0.625,0.791016 0.625,2.080078 0,1.289063 -0.625,2.080078 -0.62011,0.791016 -1.61621,0.791016 -0.60058,0 -1.03515,-0.234375 -0.42969,-0.239258 -0.71289,-0.727539 z m 3.05664,-1.90918 q 0,-0.991211 -0.41016,-1.552734 -0.40527,-0.566406 -1.11816,-0.566406 -0.7129,0 -1.12305,0.566406 -0.40527,0.561523 -0.40527,1.552734 0,0.991211 0.40527,1.557617 0.41015,0.561524 1.12305,0.561524 0.71289,0 1.11816,-0.561524 0.41016,-0.566406 0.41016,-1.557617 z m -9.41407,-1.689453 q 0.33692,-0.605469 0.80567,-0.893555 0.46875,-0.288085 1.10351,-0.288085 0.8545,0 1.31836,0.600585 0.46387,0.595704 0.46387,1.699219 l 0,3.3007815 -0.90332,0 0,-3.2714845 q 0,-0.786133 -0.27832,-1.166992 -0.27832,-0.380859 -0.84961,-0.380859 -0.69824,0 -1.10352,0.463867 -0.40527,0.463867 -0.40527,1.264648 l 0,3.0908205 -0.90332,0 0,-3.2714845 q 0,-0.791016 -0.27832,-1.166992 -0.27832,-0.380859 -0.85938,-0.380859 -0.68847,0 -1.09375,0.46875 -0.40527,0.463867 -0.40527,1.259765 l 0,3.0908205 -0.90332,0 0,-5.4687505 0.90332,0 0,0.84961 q 0.30762,-0.50293 0.73731,-0.742188 0.42968,-0.239257 1.0205,-0.239257 0.59571,0 1.01075,0.302734 0.41992,0.302734 0.62011,0.878906 z m -7.03125,-1.049805 0.89844,0 0,5.4687505 -0.89844,0 0,-5.4687505 z m 0,-2.128906 0.89844,0 0,1.137696 -0.89844,0 0,-1.137696 z" />
        </g>
      </g>
      <g
         transform="matrix(0.42193901,-0.38822236,0.69146147,0.23689846,-586.72321,788.41194)"
         id="g4352"
         style="stroke-width:1.64756159;stroke-miterlimit:4;stroke-dasharray:none">
        <rect
           style="fill:#ffffff;fill-opacity:0.51396652;stroke:#000000;stroke-width:1.64756159;stroke-miterlimit:4;stroke-dasharray:none;stroke-opacity:1"
           id="rect4136"
           width="136.76933"
           height="192.12836"
           x="89.318756"
           y="881.16785" />
        <rect
           style="fill:#ffffff;fill-opacity:0.49122807;stroke:#000000;stroke-width:1.64756159;stroke-miterlimit:4;stroke-dasharray:none;stroke-opacity:1"
           id="rect4136-3-6"
           width="58.443176"
           height="55.179138"
           x="92.993919"
           y="961.44458" />
        <rect
           style="fill:#ffffff;fill-opacity:0.49122807;stroke:#000000;stroke-width:1.64756159;stroke-miterlimit:4;stroke-dasharray:none;stroke-opacity:1"
           id="rect4136-3-6-5"
           width="58.443176"
           height="55.179138"
           x="162.88545"
           y="961.44458" />
        <rect
           style="fill:#c0dff1;fill-opacity:1;stroke:#000000;stroke-width:1.64756159;stroke-miterlimit:4;stroke-dasharray:none;stroke-opacity:1"
           id="rect4136-3-6-3"
           width="58.492222"
           height="26.444324"
           x="92.940071"
           y="961.39075" />
        <rect
           style="fill:#c0dff1;fill-opacity:1;stroke:#000000;stroke-width:1.64756159;stroke-miterlimit:4;stroke-dasharray:none;stroke-opacity:1"
           id="rect4136-3-6-5-5"
           width="58.492222"
           height="26.444324"
           x="162.89026"
           y="961.39075" />
        <rect
           style="fill:#71b7df;fill-opacity:1;stroke:#000000;stroke-width:1.64756159;stroke-miterlimit:4;stroke-dasharray:none;stroke-opacity:1"
           id="rect4136-3-6-5-2"
           width="26.665503"
           height="10.302631"
           x="165.19739"
           y="1004.1191" />
        <rect
           style="fill:#71b7df;fill-opacity:1;stroke:#000000;stroke-width:1.64756159;stroke-miterlimit:4;stroke-dasharray:none;stroke-opacity:1"
           id="rect4136-3-6-5-2-9"
           width="26.665503"
           height="10.302631"
           x="95.198471"
           y="1004.0312" />
        <rect
           style="fill:#ffffff;fill-opacity:0.49122807;stroke:#000000;stroke-width:1.64756159;stroke-miterlimit:4;stroke-dasharray:none;stroke-opacity:1"
           id="rect4136-3-6-0"
           width="58.466915"
           height="49.555965"
           x="92.967857"
           y="1023.4185" />
        <rect
           style="fill:#ffffff;fill-opacity:0.49122807;stroke:#000000;stroke-width:1.64756159;stroke-miterlimit:4;stroke-dasharray:none;stroke-opacity:1"
           id="rect4136-3-6-5-6"
           width="58.466915"
           height="49.555965"
           x="162.88777"
           y="1023.4185" />
        <rect
           style="fill:#c0dff1;fill-opacity:1;stroke:#000000;stroke-width:1.64756159;stroke-miterlimit:4;stroke-dasharray:none;stroke-opacity:1"
           id="rect4136-3-6-3-2"
           width="58.492222"
           height="26.444324"
           x="92.940071"
           y="1023.3906" />
        <rect
           style="fill:#c0dff1;fill-opacity:1;stroke:#000000;stroke-width:1.64756159;stroke-miterlimit:4;stroke-dasharray:none;stroke-opacity:1;opacity:0.95"
           id="rect4136-3-6-5-5-6"
           width="58.492222"
           height="26.444324"
           x="162.89026"
           y="1023.3906" />
        <rect
           style="fill:#71b7df;fill-opacity:1;stroke:#000000;stroke-width:1.64756159;stroke-miterlimit:4;stroke-dasharray:none;stroke-opacity:1"
           id="rect4136-3-6-5-2-1"
           width="26.714397"
           height="6.9613185"
           x="165.23712"
           y="1066.002" />
        <rect
           style="fill:#71b7df;fill-opacity:1;stroke:#000000;stroke-width:1.64756159;stroke-miterlimit:4;stroke-dasharray:none;stroke-opacity:1"
           id="rect4136-3-6-5-2-9-8"
           width="26.714397"
           height="6.9613185"
           x="95.109848"
           y="1065.9426" />
        <rect
           style="fill:#c0dff1;fill-opacity:1;stroke:#000000;stroke-width:1.64756159;stroke-miterlimit:4;stroke-dasharray:none;stroke-opacity:1"
           id="rect4136-3-4"
           width="136.75465"
           height="55.837566"
           x="89.326096"
           y="899.17517" />
        <rect
           style="fill:#71b7df;fill-opacity:1;stroke:#000000;stroke-width:1.64756159;stroke-miterlimit:4;stroke-dasharray:none;stroke-opacity:1;opacity:1"
           id="rect4136-3"
           width="137.45168"
           height="19.290419"
           x="88.977585"
           y="880.82666" />
      </g>
      <rect
         transform="matrix(0.74357469,-0.66865288,0,-1,0,0)"
         y="-1235.793"
         x="272.20914"
         height="7.1194496"
         width="85.497475"
         id="rect4623-3"
         style="fill:#4a4a4a;fill-opacity:1;stroke:#000000;stroke-width:1.15967875;stroke-linecap:round;stroke-linejoin:round;stroke-miterlimit:4;stroke-dasharray:none;stroke-opacity:1" />
      <rect
         transform="matrix(0.73768435,-0.67514576,0,-1,0,0)"
         y="-1237.4668"
         x="316.14987"
         height="1.8055732"
         width="9.4575872"
         id="rect4623-3-0"
         style="fill:#000000;fill-opacity:1;stroke:#000000;stroke-width:1.16429951;stroke-linecap:round;stroke-linejoin:round;stroke-miterlimit:4;stroke-dasharray:none;stroke-opacity:1" />
    </g>
  </g>
</svg>
